<?xml version="1.0" encoding="utf-8"?>
<!-- Generator: Adobe Illustrator 22.0.1, SVG Export Plug-In . SVG Version: 6.00 Build 0)  -->
<svg version="1.1" id="Layer_1" xmlns="http://www.w3.org/2000/svg" xmlns:xlink="http://www.w3.org/1999/xlink" x="0px" y="0px"
	 viewBox="0 0 212.6 212.6" style="enable-background:new 0 0 212.6 212.6;" xml:space="preserve">
<g id="icon--graph">
	<path d="M165.6,67c-4.6,0-8.4,4-8.4,8.9c0,0.5,0,0.9,0.1,1.3l-30.6,26c-0.9-0.4-2-0.6-3-0.6c-1.8,0-3.5,0.6-4.9,1.7L94.4,92.7
		c-0.4-4.5-4-8-8.3-8c-4.6,0-8.4,4-8.4,8.9c0,1,0.1,1.9,0.4,2.7l-28,33c-0.6-0.1-1.1-0.2-1.7-0.2c-4.6,0-8.4,4-8.4,8.9
		c0,4.9,3.8,8.9,8.4,8.9s8.4-4,8.4-8.9c0-1-0.1-1.9-0.4-2.7l28-33c0.6,0.1,1.1,0.2,1.7,0.2c1.8,0,3.5-0.6,4.9-1.7l24.4,11.5
		c0.4,4.5,4,8,8.3,8c4.6,0,8.4-4,8.4-8.9c0-0.5,0-0.9-0.1-1.3l30.6-26c0.9,0.4,2,0.6,3,0.6c4.6,0,8.4-4,8.4-8.9
		C174,71,170.2,67,165.6,67z"/>
</g>
</svg>
