<?xml version="1.0" encoding="utf-8"?>
<!-- Generator: Adobe Illustrator 22.0.1, SVG Export Plug-In . SVG Version: 6.00 Build 0)  -->
<svg version="1.1" id="Layer_1" xmlns="http://www.w3.org/2000/svg" xmlns:xlink="http://www.w3.org/1999/xlink" x="0px" y="0px"
	 viewBox="0 0 212.6 212.6" style="enable-background:new 0 0 212.6 212.6;" xml:space="preserve">
<g id="icon--calculate">
	<path d="M158.6,48H55.4c-4.1,0-7.4,3.3-7.4,7.4v103.3c0,4.1,3.3,7.4,7.4,7.4h103.2c4.1,0,7.4-3.3,7.4-7.4V55.4
		C166,51.3,162.7,48,158.6,48z M158.6,158.6H55.4V55.4h103.2L158.6,158.6z"/>
	<path d="M117.7,88.6h22.1c2,0,3.7-1.6,3.7-3.7c0-2-1.6-3.7-3.7-3.7h-22.1c-2,0-3.7,1.6-3.7,3.7C114,86.9,115.7,88.6,117.7,88.6z"/>
	<path d="M117.7,125.4h22.1c2,0,3.7-1.6,3.7-3.7c0-2-1.6-3.7-3.7-3.7h-22.1c-2,0-3.7,1.6-3.7,3.7C114,123.8,115.7,125.4,117.7,125.4
		z"/>
	<path d="M117.7,140.2h22.1c2,0,3.7-1.6,3.7-3.7c0-2-1.6-3.7-3.7-3.7h-22.1c-2,0-3.7,1.7-3.7,3.7C114,138.5,115.7,140.2,117.7,140.2
		z"/>
	<path d="M73.8,88.6h7.4v7.4c0,2,1.7,3.7,3.7,3.7c2,0,3.7-1.6,3.7-3.7v-7.4h7.4c2,0,3.7-1.6,3.7-3.7c0-2-1.7-3.7-3.7-3.7h-7.4v-7.4
		c0-2-1.7-3.7-3.7-3.7c-2,0-3.7,1.7-3.7,3.7v7.4h-7.4c-2,0-3.7,1.6-3.7,3.7C70.1,86.9,71.8,88.6,73.8,88.6z"/>
	<path d="M71.2,142.8c0.7,0.7,1.7,1.1,2.6,1.1c0.9,0,1.9-0.4,2.6-1.1l8.5-8.5l8.5,8.5c0.7,0.7,1.7,1.1,2.6,1.1
		c0.9,0,1.9-0.4,2.6-1.1c1.4-1.4,1.4-3.8,0-5.2l-8.5-8.5l8.5-8.5c1.4-1.4,1.4-3.8,0-5.2c-1.4-1.4-3.8-1.4-5.2,0l-8.5,8.5l-8.5-8.5
		c-1.4-1.4-3.8-1.4-5.2,0c-1.4,1.4-1.4,3.8,0,5.2l8.5,8.5l-8.5,8.5C69.8,139,69.8,141.4,71.2,142.8z"/>
</g>
</svg>
