<?xml version="1.0" encoding="utf-8"?>
<!-- Generator: Adobe Illustrator 22.0.1, SVG Export Plug-In . SVG Version: 6.00 Build 0)  -->
<svg version="1.1" id="Layer_1" xmlns="http://www.w3.org/2000/svg" xmlns:xlink="http://www.w3.org/1999/xlink" x="0px" y="0px"
	 viewBox="0 0 212.6 212.6" style="enable-background:new 0 0 212.6 212.6;" xml:space="preserve">
<style type="text/css">
	.st0{fill-rule:evenodd;clip-rule:evenodd;fill:#7F7F7F;}
	.st1{fill-rule:evenodd;clip-rule:evenodd;fill:#1D86C1;}
</style>
<g id="icon--sidebar-opener">
	<path class="st0" d="M97.5,131.5H87.3c-2.5,0-4.5,2.1-4.5,4.6c0,2.6,2,4.6,4.5,4.6h10.2c2.5,0,4.5-2.1,4.5-4.6
		C102,133.6,100,131.5,97.5,131.5z"/>
	<path class="st0" d="M117,107c0-2.6-2-4.6-4.5-4.6H87.3c-2.5,0-4.5,2.1-4.5,4.6c0,2.6,2,4.6,4.5,4.6h25.2
		C115,111.6,117,109.6,117,107z"/>
	<path class="st0" d="M87.3,82.5h10.2c2.5,0,4.5-2.1,4.5-4.6c0-2.6-2-4.6-4.5-4.6H87.3c-2.5,0-4.5,2.1-4.5,4.6
		C82.8,80.4,84.8,82.5,87.3,82.5z"/>
	<path class="st0" d="M68,72c-3.3,0-6,2.8-6,6.2c0,3.4,2.7,6.2,6,6.2c3.3,0,6-2.8,6-6.2C74.1,74.8,71.4,72,68,72z"/>
	<path class="st0" d="M68,100.8c-3.3,0-6,2.8-6,6.2c0,3.4,2.7,6.2,6,6.2c3.3,0,6-2.8,6-6.2C74.1,103.6,71.4,100.8,68,100.8z"/>
	<path class="st0" d="M68,129.5c-3.3,0-6,2.8-6,6.2c0,3.4,2.7,6.2,6,6.2c3.3,0,6-2.8,6-6.2C74.1,132.3,71.4,129.5,68,129.5z"/>
	<path class="st1" d="M150.5,103.9l-28.1-28.5c-1.9-2-5.1-2-7,0c-1.9,2-1.9,5.1,0,7.1l24.5,24.9l-24.5,24.9c-1.9,2-1.9,5.1,0,7.1
		c1.9,2,5.1,2,7,0l28.1-28.5C152.5,109.1,152.5,105.9,150.5,103.9z"/>
</g>
</svg>
