<?xml version="1.0" encoding="utf-8"?>
<!-- Generator: Adobe Illustrator 22.0.0, SVG Export Plug-In . SVG Version: 6.00 Build 0)  -->
<svg version="1.1" id="icon--login_1_" xmlns="http://www.w3.org/2000/svg" xmlns:xlink="http://www.w3.org/1999/xlink" x="0px"
	 y="0px" viewBox="0 0 9 9" style="enable-background:new 0 0 9 9;" xml:space="preserve">
<style type="text/css">
	.st0{fill:#FFFFFF;}
</style>
<g id="icon--login">
	<path class="st0" d="M5.8,4.6L5.8,4.6L5.8,4.6l0.1-0.2L5.8,4.3L4.3,2.8c0,0-0.1-0.1-0.2-0.1S4,2.8,3.9,2.8c-0.1,0.1-0.1,0.3,0,0.4
		l0.9,0.9H0.9c-0.2,0-0.3,0.1-0.3,0.3s0.1,0.3,0.3,0.3h3.9v0.2L3.9,5.7C3.8,5.8,3.8,6,3.9,6.1S4,6.3,4.1,6.3l0,0
		c0.1,0,0.2,0,0.2-0.1l0,0L5.8,4.6L5.8,4.6L5.8,4.6L5.8,4.6L5.8,4.6z"/>
	<path class="st0" d="M4.6,0.7c-1.3,0-2.4,0.6-3.2,1.7c0,0.1,0,0.3,0.1,0.4c0.1,0,0.1,0.1,0.2,0c0.1,0,0.2-0.1,0.2-0.1
		c0.6-0.9,1.6-1.4,2.6-1.4c1.8,0,3.2,1.4,3.2,3.2S6.4,7.7,4.6,7.7c-1.1,0-2-0.5-2.6-1.4c0-0.1-0.1-0.1-0.2-0.1c0,0,0,0-0.1,0
		s-0.1,0-0.2,0.1c-0.1,0-0.1,0.2,0,0.3c0.7,1.1,1.9,1.7,3.2,1.7c2.1,0,3.8-1.7,3.8-3.8C8.4,2.4,6.7,0.7,4.6,0.7z"/>
</g>
</svg>
