<?xml version="1.0" encoding="utf-8"?>
<!-- Generator: Adobe Illustrator 22.0.0, SVG Export Plug-In . SVG Version: 6.00 Build 0)  -->
<svg version="1.1" id="Layer_1" xmlns="http://www.w3.org/2000/svg" xmlns:xlink="http://www.w3.org/1999/xlink" x="0px" y="0px"
	 viewBox="0 0 16 20" style="enable-background:new 0 0 16 20;" xml:space="preserve">
<style type="text/css">
	.st0{fill:#1D86C1;}
</style>
<path class="st0" d="M8,9.8c2.3,0,4.2-2.2,4.2-4.9C12.2,2.2,11.5,0,8,0C4.5,0,3.8,2.2,3.8,4.9C3.8,7.6,5.7,9.8,8,9.8z"/>
<path class="st0" d="M0.1,17.2C0.1,17.1,0.1,17.2,0.1,17.2L0.1,17.2z"/>
<path class="st0" d="M15.9,17.4C15.9,17.3,15.9,17.1,15.9,17.4L15.9,17.4z"/>
<path class="st0" d="M15.8,17.1c-0.1-4.7-0.7-6-5.6-6.9c0,0-0.7,0.8-2.3,0.8s-2.3-0.8-2.3-0.8c-4.8,0.8-5.5,2.2-5.6,6.7
	c0,0.4,0,0.4,0,0.4c0,0.1,0,0.2,0,0.5c0,0,1.2,2.3,7.9,2.3s7.9-2.3,7.9-2.3c0-0.2,0-0.3,0-0.4C15.9,17.4,15.9,17.4,15.8,17.1z"/>
</svg>
