<?xml version="1.0" encoding="utf-8"?>
<!-- Generator: Adobe Illustrator 22.0.0, SVG Export Plug-In . SVG Version: 6.00 Build 0)  -->
<svg version="1.1" id="icon--sign-up_1_" xmlns="http://www.w3.org/2000/svg" xmlns:xlink="http://www.w3.org/1999/xlink" x="0px"
	 y="0px" viewBox="0 0 9 9" style="enable-background:new 0 0 9 9;" xml:space="preserve">
<style type="text/css">
	.st0{fill:#FFFFFF;}
</style>
<g id="icon--sign-up">
	<g>
		<path class="st0" d="M7.5,1.6H6.6V1.1c0-0.3-0.2-0.5-0.5-0.5H1.5C1.2,0.6,1,0.8,1,1.1v5.5C1,6.8,1.2,7,1.5,7H2v0.9
			c0,0.3,0.2,0.5,0.5,0.5h5C7.8,8.4,8,8.2,8,7.9V2.1C8,1.8,7.8,1.6,7.5,1.6z M1.5,6.5V1.1h4.6v5.5L1.5,6.5L1.5,6.5z M7.5,7.9h-5V7
			h3.6c0.3,0,0.5-0.2,0.5-0.5V2.1h0.9V7.9z M5.4,5.1H2.2C2.1,5.1,2,5.2,2,5.3c0,0.1,0.1,0.2,0.3,0.2h3.1c0.1,0,0.3-0.1,0.3-0.2
			C5.6,5.2,5.5,5.1,5.4,5.1z M5.4,3.5H2.2C2.1,3.5,2,3.6,2,3.8S2.1,4,2.2,4h3.1c0.1,0,0.3-0.1,0.3-0.2S5.5,3.5,5.4,3.5z M5.4,2.1
			H3.2C3.1,2.1,3,2.2,3,2.3s0.1,0.2,0.3,0.2h2.1c0.1,0,0.3-0.1,0.3-0.2S5.5,2.1,5.4,2.1z"/>
	</g>
</g>
</svg>
