<?xml version="1.0" encoding="utf-8"?>
<!-- Generator: Adobe Illustrator 22.0.1, SVG Export Plug-In . SVG Version: 6.00 Build 0)  -->
<svg version="1.1" id="Layer_1" xmlns="http://www.w3.org/2000/svg" xmlns:xlink="http://www.w3.org/1999/xlink" x="0px" y="0px"
	 viewBox="0 0 212.6 212.6" style="enable-background:new 0 0 212.6 212.6;" xml:space="preserve">
<g id="icon--note">
	<path d="M151.7,47H62.4c-2.3,0-4.1,1.7-4.1,3.7v18.8h-4.1c-2.3,0-4.1,1.7-4.1,3.7c0,2.1,1.8,3.8,4.1,3.8h4.1v15h-4.1
		c-2.3,0-4.1,1.7-4.1,3.8c0,2.1,1.8,3.8,4.1,3.8h4.1v15h-4.1c-2.3,0-4.1,1.7-4.1,3.8c0,2.1,1.8,3.7,4.1,3.7h4.1v15h-4.1
		c-2.3,0-4.1,1.7-4.1,3.7c0,2.1,1.8,3.7,4.1,3.7h4.1v18.7c0,2.1,1.8,3.8,4.1,3.8h89.3c6.8,0,12.3-5,12.3-11.3V58.3
		C164.1,52.1,158.5,47,151.7,47z M70.6,137.1h-4.1v-15h4.1c2.3,0,4.1-1.7,4.1-3.7c0-2.1-1.8-3.8-4.1-3.8h-4.1v-15h4.1
		c2.3,0,4.1-1.7,4.1-3.8c0-2.1-1.8-3.8-4.1-3.8h-4.1v-15h4.1c2.3,0,4.1-1.7,4.1-3.8c0-2.1-1.8-3.7-4.1-3.7h-4.1v-15h65.7v105H66.5
		v-15h4.1c2.3,0,4.1-1.7,4.1-3.7C74.7,138.7,72.9,137.1,70.6,137.1z M155.8,155.8c0,2.1-1.8,3.7-4.1,3.7h-11.3v-105h11.3
		c2.3,0,4.1,1.7,4.1,3.8V155.8z"/>
</g>
</svg>
