<?xml version="1.0" encoding="utf-8"?>
<!-- Generator: Adobe Illustrator 22.0.1, SVG Export Plug-In . SVG Version: 6.00 Build 0)  -->
<svg version="1.1" id="Capa_1" xmlns="http://www.w3.org/2000/svg" xmlns:xlink="http://www.w3.org/1999/xlink" x="0px" y="0px"
	 viewBox="0 0 33.3 33.3" style="enable-background:new 0 0 33.3 33.3;" xml:space="preserve">
<style type="text/css">
	.st0{fill:#FF4164;}
</style>
<path d="M30.1,8.7L30.1,8.7C30.1,8.7,30.1,8.7,30.1,8.7c0-0.1,0-0.1,0-0.2c0,0,0-0.1-0.1-0.1c0,0,0,0,0-0.1l-8-8.2c0,0,0,0,0,0
	C21.9,0.1,21.7,0,21.6,0c0,0,0,0,0,0c0,0,0,0,0,0H5.7C4.3,0,3.2,1.1,3.2,2.5v28.3c0,1.4,1.1,2.5,2.5,2.5h21.9c1.4,0,2.5-1.1,2.5-2.5
	V8.7C30.1,8.7,30.1,8.7,30.1,8.7z M22.1,1.7l6.3,6.5h-6.3V1.7z M27.6,32.3H5.7c-0.8,0-1.5-0.7-1.5-1.5V2.5C4.2,1.7,4.9,1,5.7,1h15.4
	v7.7c0,0.3,0.2,0.5,0.5,0.5h7.5v21.6C29.1,31.6,28.4,32.3,27.6,32.3z"/>
<path class="st0" d="M20.2,19.5l-2.8-2.8l2.8-2.8c0.2-0.2,0.2-0.5,0-0.7c-0.2-0.2-0.5-0.2-0.7,0l-2.8,2.8l-2.8-2.8
	c-0.2-0.2-0.5-0.2-0.7,0c-0.2,0.2-0.2,0.5,0,0.7l2.8,2.8l-2.8,2.8c-0.2,0.2-0.2,0.5,0,0.7c0.2,0.2,0.5,0.2,0.7,0l2.8-2.8l2.8,2.8
	c0.2,0.2,0.5,0.2,0.7,0C20.4,20,20.4,19.7,20.2,19.5z"/>
</svg>
