<?xml version="1.0" encoding="utf-8"?>
<!-- Generator: Adobe Illustrator 22.0.0, SVG Export Plug-In . SVG Version: 6.00 Build 0)  -->
<svg version="1.1" id="icon--find-password_1_" xmlns="http://www.w3.org/2000/svg" xmlns:xlink="http://www.w3.org/1999/xlink"
	 x="0px" y="0px" viewBox="0 0 9 9" style="enable-background:new 0 0 9 9;" xml:space="preserve">
<style type="text/css">
	.st0{fill:#FFFFFF;}
	.st1{fill:#FAFDFE;}
</style>
<g id="icon--find-password">
	<g>
		<path class="st0" d="M8.4,8L6.5,6C7,5.5,7.3,4.7,7.3,3.9c0-1-0.4-1.9-1.1-2.5v1c0.3,0.4,0.5,1,0.5,1.5c0,1.5-1.2,2.7-2.7,2.7
			S1.3,5.4,1.3,3.9c0-0.1,0-0.1,0-0.2H0.6c0,0.1,0,0.1,0,0.2c0,1.9,1.5,3.4,3.4,3.4c0.7,0,1.5-0.3,2-0.8l2,1.9
			c0.1,0.1,0.3,0.1,0.5,0C8.6,8.3,8.6,8.1,8.4,8z"/>
		<path class="st0" d="M3.9,0.5L3.9,0.5L3.9,0.5L3.9,0.5z"/>
	</g>
	<g>
		<path class="st1" d="M1.3,0.5H0.5v2.3H1V2h0.3c0.4,0,0.9-0.2,0.9-0.8C2.2,0.7,1.9,0.5,1.3,0.5z M1.2,1.6H1V0.8h0.3
			c0.2,0,0.5,0,0.5,0.4C1.7,1.5,1.5,1.6,1.2,1.6z"/>
		<path class="st1" d="M4.8,0.5l-0.2,1c0,0.1,0,0.2,0,0.3c0,0.1,0,0.3-0.1,0.4l0,0l0,0l0,0c0-0.1,0-0.2-0.1-0.3
			c0-0.1-0.1-0.3-0.1-0.4l-0.2-1H3.7l-0.3,1c0,0.2-0.1,0.5-0.1,0.8l0,0H3.2L3.1,1.5l-0.2-1H2.4l0.4,2.3h0.6l0.2-1
			c0-0.1,0-0.3,0.1-0.4V1.2h0.1l0,0c0,0.2,0.1,0.4,0.1,0.6l0.2,1h0.7l0.4-2.3H4.8z"/>
	</g>
</g>
</svg>
