<?xml version="1.0" encoding="utf-8"?>
<!-- Generator: Adobe Illustrator 22.0.1, SVG Export Plug-In . SVG Version: 6.00 Build 0)  -->
<svg version="1.1" id="Layer_1" xmlns="http://www.w3.org/2000/svg" xmlns:xlink="http://www.w3.org/1999/xlink" x="0px" y="0px"
	 viewBox="0 0 212.6 212.6" style="enable-background:new 0 0 212.6 212.6;" xml:space="preserve">
<style type="text/css">
	.st0{fill:#7F7F7F;}
	.st1{fill:#1D86C1;}
</style>
<g id="icon--sidebar-closer">
	<path class="st0" d="M117.5,131.5H87.3c-2.5,0-4.5,2.1-4.5,4.6c0,2.6,2,4.6,4.5,4.6h30.2c2.5,0,4.5-2.1,4.5-4.6
		S120,131.5,117.5,131.5z"/>
	<path class="st0" d="M104,107c0-2.6-2-4.6-4.5-4.6H87.3c-2.5,0-4.5,2.1-4.5,4.6c0,2.6,2,4.6,4.5,4.6h12.2
		C102,111.6,104,109.6,104,107z"/>
	<path class="st0" d="M87.3,82.5h30.2c2.5,0,4.5-2.1,4.5-4.6c0-2.6-2-4.6-4.5-4.6H87.3c-2.5,0-4.5,2.1-4.5,4.6S84.8,82.5,87.3,82.5z
		"/>
	<path class="st0" d="M68,72c-3.3,0-6,2.8-6,6.2c0,3.4,2.7,6.2,6,6.2s6-2.8,6-6.2C74.1,74.8,71.4,72,68,72z"/>
	<path class="st0" d="M68,100.8c-3.3,0-6,2.8-6,6.2c0,3.4,2.7,6.2,6,6.2s6-2.8,6-6.2C74.1,103.6,71.4,100.8,68,100.8z"/>
	<path class="st0" d="M68,129.5c-3.3,0-6,2.8-6,6.2s2.7,6.2,6,6.2s6-2.8,6-6.2C74.1,132.3,71.4,129.5,68,129.5z"/>
	<path class="st1" d="M115.5,110.9l28.1,28.5c1.9,2,5.1,2,7,0c1.9-2,1.9-5.1,0-7.1l-24.5-24.9l24.5-24.9c1.9-2,1.9-5.1,0-7.1
		c-1.9-2-5.1-2-7,0l-28.1,28.5C113.5,105.9,113.5,109.1,115.5,110.9z"/>
</g>
</svg>
