<?xml version="1.0" encoding="utf-8"?>
<!-- Generator: Adobe Illustrator 22.0.0, SVG Export Plug-In . SVG Version: 6.00 Build 0)  -->
<svg version="1.1" id="Layer_1" xmlns="http://www.w3.org/2000/svg" xmlns:xlink="http://www.w3.org/1999/xlink" x="0px" y="0px"
	 viewBox="0 0 100 100" style="enable-background:new 0 0 100 100;" xml:space="preserve">
<style type="text/css">
	.st0{fill:#FFFFFF;}
</style>
<g id="icon--menu--sidebar-activator">
	<path class="st0" d="M95,77.3H5c-2.8,0-5,2.3-5,5.1c0,2.9,2.2,5.1,5,5.1h90c2.8,0,5-2.3,5-5.1S97.8,77.3,95,77.3z"/>
	<path class="st0" d="M100,50.1c0-2.9-2.2-5.1-5-5.1H5c-2.8,0-5,2.3-5,5.1c0,2.9,2.2,5.1,5,5.1h90C97.8,55.2,100,52.9,100,50.1z"/>
	<path class="st0" d="M5,22.8h90c2.8,0,5-2.3,5-5.1c0-2.9-2.2-5.1-5-5.1H5c-2.8,0-5,2.3-5,5.1S2.2,22.8,5,22.8z"/>
</g>
</svg>
