<?xml version="1.0" encoding="utf-8"?>
<!-- Generator: Adobe Illustrator 22.0.1, SVG Export Plug-In . SVG Version: 6.00 Build 0)  -->
<svg version="1.1" id="Layer_1" xmlns="http://www.w3.org/2000/svg" xmlns:xlink="http://www.w3.org/1999/xlink" x="0px" y="0px"
	 viewBox="0 0 212.6 212.6" style="enable-background:new 0 0 212.6 212.6;" xml:space="preserve">
<g id="icon--present">
	<path d="M157.8,82.3c-1.2-1.2-4.2-2-5.3-2H143c2.6-2.5,4.6-5.8,4.6-10.3c0-8.6-4.4-13-13-13c-5.2,0-16.7,4.2-26,19.3
		C99.2,61.2,87.7,57,82.5,57c-8.6,0-13,4.4-13,13c0,4.5,2,7.8,4.6,10.3H61.5c-6.6,0-6.5,3.6-6.5,6v17.7c0,1.8,1.5,2.7,3.2,2.7h3.3
		v42.4c0,3.6,4.4,7.9,8.1,7.9h77.9c1.8,0,4-1.1,4.7-4.1c0.3-1.3,0.3-2.7,0.3-3.9v-42.4h3.3c1.8,0,3.2-0.9,3.2-2.7V86
		C159,84.9,159,83.5,157.8,82.3z M134.5,63.5c3.3,0,6.5,0,6.5,6.5c0,7.1-10.4,9.8-10.5,9.9c-0.3,0.1-0.6,0.2-0.9,0.4h-15.8
		C123.3,64.3,134.4,63.5,134.5,63.5z M86.6,79.9C86.4,79.8,76,77.1,76,70c0-6.5,3.2-6.5,6.5-6.5c0.1,0,11.2,0.8,20.8,16.8H87.4
		C87.2,80.1,86.9,80,86.6,79.9z M61.5,86.9h42.3v13.2H61.5V87.7C61.8,87.7,60.9,86.9,61.5,86.9z M68,149.1v-41.4h35.8v42.9l-33.9,0
		C69.3,150.4,68.1,149.3,68,149.1z M146,149.1c0,0.3,0,0.9,0,1.4l-35.7,0v-42.9H146L146,149.1z M152.5,100.1h-42.3V86.9h42.3V100.1z
		"/>
</g>
</svg>
