<?xml version="1.0" encoding="utf-8"?>
<!-- Generator: Adobe Illustrator 22.0.1, SVG Export Plug-In . SVG Version: 6.00 Build 0)  -->
<svg version="1.1" id="Layer_1" xmlns="http://www.w3.org/2000/svg" xmlns:xlink="http://www.w3.org/1999/xlink" x="0px" y="0px"
	 viewBox="0 0 212.6 212.6" style="enable-background:new 0 0 212.6 212.6;" xml:space="preserve">
<g id="icon--store">
	<path d="M163.5,91.1c-0.1-0.8-0.3-1.3-0.6-1.9l-0.2-0.7c0,0-0.1-0.2-0.1-0.3l-12.3-32.8c-0.6-1.5-2.1-2.5-3.8-2.5H67.4
		c-1.7,0-3.2,1-3.8,2.5L51.4,88.1c-0.1,0.2-0.1,0.4-0.2,0.6l-0.4,1.1c-0.1,0.3-0.2,0.6-0.2,0.9c-0.4,1.4-0.6,2.6-0.6,3.9
		c0,7.1,4.7,13.2,11.4,15.5v47c0,2.2,1.8,3.8,4,3.8h84.8c2.2,0,4-1.7,4-3.8v-47.6c5.8-2.7,9.8-8.3,9.8-14.8
		C164,93.6,163.8,92.4,163.5,91.1z M146.1,153.3H69.4V111c0.2,0,0.5-0.1,0.7-0.1c4.2-0.7,7.8-2.7,10.5-5.7c3.1,3.7,7.9,5.9,13.2,5.9
		c5.3,0,10.1-2.3,13.2-5.9c3.1,3.7,7.9,5.9,13.2,5.9c5.3,0,10.1-2.3,13.2-5.9c2.3,2.6,5.3,4.5,8.8,5.3c0.1,0,0.2,0.1,0.3,0.1
		c0.4,0.1,0.8,0.2,1.3,0.3c0.2,0,0.5,0.1,0.7,0.1c0.3,0,0.7,0.1,1,0.1c0.2,0,0.5,0.1,0.7,0.1V153.3z M149.2,103.1
		c-0.5,0.1-0.9,0.2-1.3,0.3c-0.4,0.1-0.9,0.1-1.3,0.1c-0.6,0-1.2-0.1-1.8-0.2c-0.5-0.1-1-0.3-1.4-0.4c-0.1,0-0.1,0-0.2-0.1
		c-3.1-1.2-5.5-4.1-5.8-7.5c0-0.1,0-0.2,0-0.2c0-0.2,0-0.3,0-0.5c0-2.2-1.8-3.8-4-3.8c-2.3,0-4,1.7-4,3.8c0,0.2,0,0.4-0.1,0.6v0.1
		c-0.3,3.5-2.6,6.3-5.8,7.5c-0.1,0-0.1,0-0.2,0.1c-0.5,0.2-1,0.3-1.5,0.4c-0.6,0.1-1.2,0.2-1.8,0.2c-0.6,0-1.2-0.1-1.8-0.2
		c-0.5-0.1-1-0.3-1.4-0.4c-0.1,0-0.1,0-0.2-0.1c-3.1-1.2-5.5-4.1-5.8-7.5c0-0.1,0-0.1,0-0.2c0-0.2-0.1-0.3-0.1-0.5
		c0-2.2-1.8-3.8-4-3.8c-2.2,0-4,1.7-4,3.8c0,0.2,0,0.4-0.1,0.6v0.1c-0.3,3.5-2.6,6.3-5.8,7.5c-0.1,0-0.1,0-0.2,0.1
		c-0.5,0.2-1,0.3-1.5,0.4c-0.6,0.1-1.2,0.2-1.8,0.2c-0.6,0-1.2-0.1-1.8-0.2c-0.5-0.1-1-0.3-1.5-0.4c-0.1,0-0.1,0-0.2-0.1
		c-3.1-1.2-5.5-4.1-5.8-7.5c0-0.1,0-0.2,0-0.2c0-0.2,0-0.3,0-0.5c0-2.2-1.8-3.8-4-3.8c-2.2,0-4,1.7-4,3.8c0,0.2,0,0.4-0.1,0.6v0.1
		c-0.3,3.5-2.6,6.3-5.8,7.5c-0.1,0-0.1,0-0.2,0.1c-0.5,0.2-0.9,0.3-1.4,0.4c-0.6,0.1-1.2,0.2-1.8,0.2c-0.3,0-0.7-0.1-1-0.1
		c-0.1,0-0.2,0-0.4-0.1c-0.1,0-0.2,0-0.3,0c-4.3-0.7-7.6-4.3-7.6-8.7c0-0.8,0.1-1.5,0.4-2.4c0-0.1,0.1-0.3,0.1-0.4l11.7-31.2h73.4
		l11.5,30.5c0,0,0.1,0.2,0.1,0.3l0.2,0.6c0,0.1,0.1,0.3,0.1,0.4c0.3,0.9,0.4,1.7,0.4,2.4C155.9,98.6,153,102,149.2,103.1z"/>
</g>
</svg>
