<?xml version="1.0" encoding="utf-8"?>
<!-- Generator: Adobe Illustrator 22.0.0, SVG Export Plug-In . SVG Version: 6.00 Build 0)  -->
<svg version="1.1" id="Layer_1" xmlns="http://www.w3.org/2000/svg" xmlns:xlink="http://www.w3.org/1999/xlink" x="0px" y="0px"
	 viewBox="0 0 40 40" style="enable-background:new 0 0 40 40;" xml:space="preserve">
<style type="text/css">
	.st0{fill:#FFFFFF;}
</style>
<path class="st0" d="M33.3,28.1l-1.8-3.4v-4.3c0-5.2-3.5-9.5-8.3-10.9V8.2c0-1.7-1.4-3.1-3.2-3.1s-3.2,1.4-3.2,3.1v1.3
	c-4.8,1.4-8.3,5.7-8.3,10.9v4.3L6.7,28c-0.4,0.7-0.3,1.4,0.1,2s1.1,1,1.8,1h7.2c0.1,2.2,2,3.9,4.2,3.9s4.1-1.7,4.2-3.9h7.2
	c0.7,0,1.4-0.4,1.8-1C33.6,29.5,33.6,28.7,33.3,28.1z M18.5,8.2c0-0.8,0.7-1.5,1.5-1.5s1.5,0.7,1.5,1.5v0.9c-0.5-0.1-1-0.1-1.5-0.1
	s-1,0-1.5,0.1V8.2L18.5,8.2z M10.2,20.4c0-5.3,4.4-9.7,9.8-9.7c5.4,0,9.8,4.3,9.8,9.7V24H10.3v-3.6H10.2z M20,33.3
	c-1.3,0-2.4-1-2.5-2.3h5C22.4,32.3,21.3,33.3,20,33.3z M31.8,29.2c0,0.1-0.1,0.2-0.4,0.2H8.6c-0.2,0-0.3-0.1-0.4-0.2
	c0-0.1-0.1-0.2,0-0.4l1.7-3.2H30l1.7,3.2C31.9,29,31.8,29.2,31.8,29.2z"/>
</svg>
