<?xml version="1.0" encoding="utf-8"?>
<!-- Generator: Adobe Illustrator 22.0.1, SVG Export Plug-In . SVG Version: 6.00 Build 0)  -->
<svg version="1.1" id="Layer_1" xmlns="http://www.w3.org/2000/svg" xmlns:xlink="http://www.w3.org/1999/xlink" x="0px" y="0px"
	 viewBox="0 0 212.6 212.6" style="enable-background:new 0 0 212.6 212.6;" xml:space="preserve">
<g id="icon--user">
	<path d="M121.8,163H55.4c-4.1,0-7.4-3.2-7.4-7.1v-7.1c0-1.3,0.7-2.5,1.9-3.1L86,126.9C73.9,114.4,74,96.7,74,95.9V74.7l-0.1-0.6
		C76.4,59.7,93.1,50,107,50h0c13.9,0,30.6,9.7,33.1,24.1l0.1,0.6l0,21.2c0,0.8-0.1,18.4-12.1,30.9l10,4.8c1.8,0.9,2.6,3,1.6,4.7
		c-0.9,1.7-3.1,2.5-4.9,1.6l-14.7-7.1c-1.1-0.5-1.9-1.6-2-2.8c-0.1-1.2,0.4-2.4,1.3-3.1c13.2-10.2,13.8-28.8,13.8-29V74.7
		C131.1,64.1,117.6,57,107,57c-10.6,0-23.7,7.4-25.8,18l0,20.9c0,0.2,0.2,18.8,13.4,29.1c1,0.7,1.5,1.9,1.4,3.1
		c-0.1,1.2-0.8,2.2-1.9,2.8L55.4,151v5h66.4c2,0,3.7,1.6,3.7,3.5C125.4,161.4,123.8,163,121.8,163z"/>
	<path d="M144,164c-1,0-1.9-0.4-2.6-1l-14.9-13.9c-1.4-1.4-1.5-3.6-0.1-5c1.4-1.4,3.8-1.4,5.2-0.1l11.8,11l15.8-21.4
		c1.2-1.6,3.5-2,5.1-0.8c1.7,1.1,2.1,3.3,0.9,4.9L147,162.5c-0.6,0.8-1.6,1.4-2.7,1.5L144,164z"/>
</g>
</svg>
