<?xml version="1.0" encoding="utf-8"?>
<!-- Generator: Adobe Illustrator 22.0.0, SVG Export Plug-In . SVG Version: 6.00 Build 0)  -->
<svg version="1.1" id="icon--find-id_1_" xmlns="http://www.w3.org/2000/svg" xmlns:xlink="http://www.w3.org/1999/xlink" x="0px"
	 y="0px" viewBox="0 0 9 9" style="enable-background:new 0 0 9 9;" xml:space="preserve">
<style type="text/css">
	.st0{fill:#FFFFFF;}
	.st1{fill:#FAFDFE;}
</style>
<g id="icon--find-id">
	<g>
		<g>
			<path class="st0" d="M3.9,0.5L3.9,0.5L3.9,0.5L3.9,0.5z"/>
			<path class="st0" d="M8.4,8L6.5,6C7,5.5,7.3,4.7,7.3,3.9c0-1.8-1.4-3.2-3.1-3.3v0.7C5.6,1.4,6.7,2.6,6.7,4c0,1.5-1.2,2.7-2.7,2.7
				S1.3,5.5,1.3,4c0-0.1,0-0.1,0-0.2H0.6c0,0.1,0,0.1,0,0.2c0,1.9,1.5,3.4,3.4,3.4C4.7,7.3,5.5,7,6,6.5l2,1.9c0.1,0.1,0.3,0.1,0.5,0
				C8.6,8.3,8.6,8.1,8.4,8z"/>
		</g>
	</g>
	<g>
		<rect x="0.5" y="0.5" class="st1" width="0.5" height="2.3"/>
		<path class="st1" d="M2.2,0.5H1.6v2.3h0.7c0.7,0,1.1-0.4,1.1-1.2C3.4,0.9,3,0.5,2.2,0.5z M2.2,2.4H2.1V0.8h0.1
			c0.5,0,0.7,0.2,0.7,0.8C2.9,2.1,2.7,2.4,2.2,2.4z"/>
	</g>
</g>
</svg>
