<?xml version="1.0" encoding="utf-8"?>
<!-- Generator: Adobe Illustrator 22.0.1, SVG Export Plug-In . SVG Version: 6.00 Build 0)  -->
<svg version="1.1" id="Layer_1" xmlns="http://www.w3.org/2000/svg" xmlns:xlink="http://www.w3.org/1999/xlink" x="0px" y="0px"
	 viewBox="0 0 212.6 212.6" style="enable-background:new 0 0 212.6 212.6;" xml:space="preserve">
<g id="icon--bag">
	<path d="M164.8,157.3l-9.2-61.8c-0.7-5.8-5.9-10.4-11.9-10.4h-11V74.3c0,0,0,0,0,0C132.7,60.3,121.2,49,107.1,49
		c-14.1,0-25.6,11.3-25.6,25.3c0,0,0,0,0,0v10.9h-11c-5.9,0-11.2,4.5-12.1,10.3l-9.4,61.8c-0.3,2,0.3,4,1.6,5.4
		c1.3,1.5,3.2,2.3,5.2,2.3h102.5c2.1,0,4-0.9,5.2-2.4C164.8,161,165.2,159,164.8,157.3z M88.8,74.4c0-10,8.2-18.1,18.3-18.1
		c10.1,0,18.3,8.1,18.3,18.1v10.8H88.8V74.4z M56.4,157.7l9.3-61.2c0.3-2.2,2.6-4.1,4.8-4.1h11v8.2c-2.2,1.3-3.7,3.6-3.7,6.3
		c0,4,3.3,7.2,7.3,7.2c4,0,7.3-3.3,7.3-7.2c0-2.7-1.5-5-3.7-6.3v-8.2h36.6v8.2c-2.2,1.3-3.7,3.6-3.7,6.3c0,4,3.3,7.2,7.3,7.2
		c4,0,7.3-3.3,7.3-7.2c0-2.7-1.5-5-3.7-6.3v-8.2h11c2.2,0,4.3,1.9,4.6,4.1l9.1,61.2H56.4z M85.2,106.9v3.6V106.9
		C85.2,106.9,85.2,106.9,85.2,106.9z M129.1,106.9v3.6V106.9C129.1,106.9,129.1,106.9,129.1,106.9z M158.4,161.4v-3.6h0L158.4,161.4
		z"/>
</g>
</svg>
