<?xml version="1.0" encoding="utf-8"?>
<!-- Generator: Adobe Illustrator 22.0.0, SVG Export Plug-In . SVG Version: 6.00 Build 0)  -->
<svg version="1.1" id="Layer_1" xmlns="http://www.w3.org/2000/svg" xmlns:xlink="http://www.w3.org/1999/xlink" x="0px" y="0px"
	 viewBox="0 0 100 100" style="enable-background:new 0 0 100 100;" xml:space="preserve">
<style type="text/css">
	.st0{fill:#FFFFFF;}
	.st1{fill:#FF6A6A;}
</style>
<g id="icon--menu--sidebar-activator">
	<path class="st0" d="M67,77.3H5c-2.8,0-5,2.3-5,5.1c0,2.9,2.2,5.1,5,5.1h62c2.8,0,5-2.3,5-5.1S69.8,77.3,67,77.3z"/>
	<path class="st0" d="M47,50.1c0-2.9-2.2-5.1-5-5.1H5c-2.8,0-5,2.3-5,5.1c0,2.9,2.2,5.1,5,5.1h37C44.8,55.2,47,52.9,47,50.1z"/>
	<path class="st0" d="M5,22.8h62c2.8,0,5-2.3,5-5.1c0-2.9-2.2-5.1-5-5.1H5c-2.8,0-5,2.3-5,5.1S2.2,22.8,5,22.8z"/>
</g>
<path class="st1" d="M59.2,53.9l31.4,31.9c2.1,2.2,5.7,2.2,7.8,0c2.1-2.2,2.1-5.7,0-7.9L71,50l27.4-27.8c2.1-2.2,2.1-5.7,0-7.9
	s-5.7-2.2-7.8,0L59.2,46.1C56.9,48.3,56.9,51.9,59.2,53.9z"/>
</svg>
