<?xml version="1.0" encoding="utf-8"?>
<!-- Generator: Adobe Illustrator 22.0.0, SVG Export Plug-In . SVG Version: 6.00 Build 0)  -->
<svg version="1.1" id="tag" xmlns="http://www.w3.org/2000/svg" xmlns:xlink="http://www.w3.org/1999/xlink" x="0px" y="0px"
	 viewBox="0 0 64 20" style="enable-background:new 0 0 64 20;" xml:space="preserve">
<style type="text/css">
	.st0{fill:#EFEBEA;}
</style>
<g id="logo-typo">
	<path class="st0" d="M22.9,0.3c0,0,0-0.1,0-0.1c0,0,0.1,0,0.1,0h2.4c0.2,0,0.4,0,0.6,0.1c0.2,0.1,0.3,0.2,0.5,0.3
		c0.1,0.1,0.2,0.3,0.3,0.5s0.1,0.4,0.1,0.6c0,0.2,0,0.3-0.1,0.5s-0.1,0.3-0.2,0.4c0.2,0.2,0.3,0.3,0.4,0.5c0.1,0.2,0.1,0.4,0.1,0.7
		c0,0.2,0,0.4-0.1,0.6s-0.2,0.3-0.3,0.5c-0.1,0.1-0.3,0.2-0.5,0.3c-0.2,0.1-0.4,0.1-0.6,0.1H23c-0.1,0-0.2-0.1-0.2-0.2V0.3z
		 M25.3,1.7c0-0.1,0-0.2-0.1-0.3c-0.1-0.1-0.2-0.1-0.3-0.1h-0.5V2h0.5c0.1,0,0.2,0,0.3-0.1C25.2,1.9,25.3,1.8,25.3,1.7z M25.4,3.6
		c0,0,0-0.1,0-0.1c0,0,0-0.1-0.1-0.1c0,0-0.1-0.1-0.1-0.1s-0.1,0-0.1,0h-0.6V4H25c0.1,0,0.1,0,0.1,0c0,0,0.1-0.1,0.1-0.1
		c0,0,0.1-0.1,0.1-0.1C25.4,3.7,25.4,3.7,25.4,3.6z"/>
	<path class="st0" d="M31.5,0.1c0,0,0.1,0,0.1,0c0,0,0,0.1,0,0.1v1c0,0,0,0.1,0,0.1c0,0-0.1,0.1-0.1,0.1h-2.1v0.7h1.4
		c0,0,0.1,0,0.1,0c0,0,0,0,0,0.1v0.9c0,0,0,0,0,0.1c0,0-0.1,0-0.1,0h-1.4V4h2.2c0,0,0.1,0,0.1,0c0,0,0,0.1,0,0.1v1c0,0,0,0,0,0.1
		c0,0,0,0,0,0.1c0,0-0.1,0.1-0.1,0.1h-3.6c-0.1,0-0.2-0.1-0.2-0.2V0.3c0,0,0-0.1,0-0.1c0,0,0.1,0,0.1,0H31.5z"/>
	<path class="st0" d="M35.8,0.3c0,0,0-0.1,0-0.1c0,0,0.1,0,0.1,0h1.3c0.1,0,0.1,0,0.1,0c0,0,0,0.1,0,0.1v4.9c0,0,0,0.1,0,0.1
		c0,0-0.1,0-0.1,0h-1.3c-0.1,0-0.1,0-0.2-0.1l-1.6-2.4v2.3c0,0.1-0.1,0.2-0.2,0.2h-1.3c-0.1,0-0.1,0-0.1,0c0,0,0-0.1,0-0.1V0.3
		c0,0,0-0.1,0-0.1c0,0,0.1,0,0.1,0h1.5c0,0,0.1,0,0.1,0c0,0,0.1,0,0.1,0.1l1.4,2.2V0.3z"/>
	<path class="st0" d="M42.2,0.1c0,0,0.1,0,0.1,0c0,0,0,0.1,0,0.1v1c0,0,0,0.1,0,0.1c0,0-0.1,0.1-0.1,0.1h-2.1v0.7h1.4
		c0,0,0.1,0,0.1,0c0,0,0,0,0,0.1v0.9c0,0,0,0,0,0.1c0,0-0.1,0-0.1,0h-1.4V4h2.2c0,0,0.1,0,0.1,0c0,0,0,0.1,0,0.1v1c0,0,0,0,0,0.1
		c0,0,0,0,0,0.1c0,0-0.1,0.1-0.1,0.1h-3.6c-0.1,0-0.2-0.1-0.2-0.2V0.3c0,0,0-0.1,0-0.1c0,0,0.1,0,0.1,0H42.2z"/>
	<path class="st0" d="M46.9,0.1c0,0,0.1,0,0.1,0c0,0,0,0.1,0,0.1v1.1c0,0,0,0.1,0,0.1c0,0-0.1,0.1-0.1,0.1H45v1.1h1.3
		c0,0,0.1,0,0.1,0c0,0,0,0.1,0,0.1v1c0,0,0,0.1,0,0.1c0,0-0.1,0.1-0.1,0.1H45v1.2c0,0.1-0.1,0.2-0.2,0.2h-1.4c0,0-0.1,0-0.1-0.1
		c0,0,0-0.1,0-0.1V0.3c0,0,0,0,0,0c0,0,0,0,0,0c0,0,0,0,0.1-0.1c0,0,0,0,0.1,0H46.9z"/>
	<path class="st0" d="M47.9,0.3c0,0,0-0.1,0-0.1c0,0,0.1,0,0.1,0h1.3c0,0,0.1,0,0.1,0c0,0,0.1,0.1,0.1,0.1v4.8
		c0,0.1-0.1,0.2-0.2,0.2H48c-0.1,0-0.2-0.1-0.2-0.2V0.3z"/>
	<path class="st0" d="M54.6,0.1c0,0,0.1,0,0.1,0c0,0,0,0.1,0,0.1v1.1c0,0,0,0.1,0,0.1c0,0-0.1,0.1-0.1,0.1h-1.2v3.6
		c0,0.1-0.1,0.2-0.2,0.2h-1.3c-0.1,0-0.2-0.1-0.2-0.2V1.6h-1.2c-0.1,0-0.2-0.1-0.2-0.2V0.3c0-0.1,0.1-0.2,0.2-0.2H54.6z"/>
	<path class="st0" d="M56.3,3.4c0.1,0.1,0.2,0.1,0.3,0.2c0.1,0.1,0.2,0.1,0.2,0.2c0.1,0.1,0.2,0.1,0.2,0.1c0.1,0,0.2,0.1,0.2,0.1
		c0.1,0,0.2,0,0.3-0.1c0.1,0,0.1-0.1,0.1-0.2c0,0,0-0.1,0-0.1c0,0,0-0.1-0.1-0.1c0,0-0.1-0.1-0.2-0.1c-0.1,0-0.2-0.1-0.3-0.1h0
		c-0.3-0.1-0.6-0.2-0.8-0.3s-0.4-0.3-0.5-0.4c-0.1-0.1-0.2-0.3-0.3-0.5c0-0.2-0.1-0.4-0.1-0.5c0-0.2,0-0.4,0.1-0.6s0.2-0.3,0.4-0.5
		c0.2-0.1,0.4-0.2,0.6-0.3S57.1,0,57.4,0c0.2,0,0.3,0,0.5,0c0.2,0,0.3,0.1,0.5,0.1c0.2,0.1,0.3,0.1,0.4,0.2c0.1,0.1,0.3,0.2,0.4,0.3
		c0,0.1,0.1,0.1,0,0.2c0,0.1-0.1,0.1-0.1,0.2l-0.6,0.7c0,0-0.1,0.1-0.1,0.1s-0.1,0-0.1,0c0,0-0.1,0-0.1,0c0,0-0.1,0-0.1-0.1
		c-0.1,0-0.1-0.1-0.2-0.1c-0.1,0-0.1-0.1-0.2-0.1s-0.1,0-0.2-0.1c-0.1,0-0.1,0-0.2,0c0,0-0.1,0-0.1,0c0,0-0.1,0-0.1,0
		c0,0-0.1,0-0.1,0.1c0,0,0,0.1,0,0.1c0,0.1,0,0.1,0.1,0.1c0,0,0.1,0.1,0.1,0.1c0.1,0,0.1,0,0.2,0.1c0.1,0,0.1,0,0.2,0.1
		C58,2,58.2,2.1,58.4,2.2c0.2,0.1,0.4,0.2,0.5,0.3c0.1,0.1,0.3,0.3,0.3,0.4c0.1,0.2,0.1,0.4,0.1,0.7c0,0.3-0.1,0.5-0.2,0.7
		c-0.1,0.2-0.3,0.4-0.4,0.5c-0.2,0.1-0.4,0.3-0.7,0.3c-0.3,0.1-0.5,0.1-0.8,0.1c-0.2,0-0.3,0-0.5-0.1c-0.2,0-0.4-0.1-0.5-0.2
		c-0.2-0.1-0.3-0.2-0.5-0.3c-0.2-0.1-0.3-0.2-0.4-0.3c0,0-0.1-0.1-0.1-0.1c0,0,0,0,0-0.1c0,0,0,0,0-0.1c0,0,0-0.1,0.1-0.1L56,3.3
		c0,0,0.1,0,0.1-0.1c0,0,0,0,0.1,0c0,0,0,0,0.1,0C56.3,3.3,56.3,3.3,56.3,3.4z"/>
	<path class="st0" d="M26.4,7.4c0,0,0.1,0,0.1,0c0,0,0,0.1,0,0.1v1.1c0,0,0,0.1,0,0.1c0,0-0.1,0.1-0.1,0.1h-1.9v1.1h1.3
		c0,0,0.1,0,0.1,0c0,0,0,0.1,0,0.1v1c0,0,0,0.1,0,0.1c0,0-0.1,0.1-0.1,0.1h-1.3v1.2c0,0.1-0.1,0.2-0.2,0.2h-1.4c0,0-0.1,0-0.1-0.1
		c0,0,0-0.1,0-0.1V7.5c0,0,0,0,0,0c0,0,0,0,0,0c0,0,0,0,0.1-0.1c0,0,0,0,0.1,0H26.4z"/>
	<path class="st0" d="M27.1,9.9c0-0.2,0-0.5,0.1-0.7c0.1-0.2,0.2-0.4,0.3-0.6c0.1-0.2,0.3-0.4,0.4-0.5c0.2-0.2,0.4-0.3,0.6-0.4
		c0.2-0.1,0.4-0.2,0.6-0.3c0.2-0.1,0.5-0.1,0.7-0.1c0.2,0,0.5,0,0.7,0.1c0.2,0.1,0.4,0.2,0.6,0.3c0.2,0.1,0.4,0.3,0.6,0.4
		c0.2,0.2,0.3,0.3,0.4,0.5c0.1,0.2,0.2,0.4,0.3,0.6c0.1,0.2,0.1,0.5,0.1,0.7c0,0.2,0,0.5-0.1,0.7c-0.1,0.2-0.2,0.4-0.3,0.6
		c-0.1,0.2-0.3,0.4-0.4,0.5c-0.2,0.2-0.4,0.3-0.6,0.4c-0.2,0.1-0.4,0.2-0.6,0.3c-0.2,0.1-0.5,0.1-0.7,0.1c-0.2,0-0.5,0-0.7-0.1
		c-0.2-0.1-0.4-0.2-0.6-0.3S28,12,27.9,11.8c-0.2-0.2-0.3-0.3-0.4-0.5c-0.1-0.2-0.2-0.4-0.3-0.6C27.1,10.4,27.1,10.2,27.1,9.9z
		 M28.7,9.9c0,0.1,0,0.3,0.1,0.4c0.1,0.1,0.1,0.2,0.2,0.3c0.1,0.1,0.2,0.2,0.3,0.2s0.3,0.1,0.4,0.1c0.1,0,0.3,0,0.4-0.1
		c0.1-0.1,0.2-0.1,0.3-0.2c0.1-0.1,0.2-0.2,0.2-0.3c0.1-0.1,0.1-0.3,0.1-0.4c0-0.1,0-0.3-0.1-0.4c-0.1-0.1-0.1-0.2-0.2-0.3
		C30.5,9.1,30.3,9,30.2,9c-0.1-0.1-0.3-0.1-0.4-0.1c-0.1,0-0.3,0-0.4,0.1C29.2,9,29.1,9.1,29,9.2c-0.1,0.1-0.2,0.2-0.2,0.3
		C28.7,9.6,28.7,9.8,28.7,9.9z"/>
	<path class="st0" d="M33.3,7.5c0,0,0-0.1,0-0.1c0,0,0.1,0,0.1,0h2.3c0.2,0,0.5,0,0.7,0.1s0.4,0.2,0.5,0.4c0.1,0.2,0.3,0.3,0.4,0.5
		c0.1,0.2,0.1,0.4,0.1,0.7c0,0.2,0,0.3-0.1,0.4c0,0.1-0.1,0.3-0.2,0.4c-0.1,0.1-0.2,0.2-0.3,0.3c-0.1,0.1-0.2,0.2-0.3,0.3l1,1.8
		c0,0,0,0.1,0,0.1c0,0-0.1,0-0.1,0h-1.4c0,0-0.1,0-0.1,0c0,0-0.1-0.1-0.1-0.1l-0.7-1.5h-0.2v1.5c0,0.1-0.1,0.2-0.2,0.2h-1.3
		c-0.1,0-0.2-0.1-0.2-0.2V7.5z M35.8,9.1c0,0,0-0.1,0-0.1c0,0,0-0.1-0.1-0.1c0,0-0.1-0.1-0.1-0.1c0,0-0.1,0-0.1,0h-0.5v0.8h0.5
		c0.1,0,0.1,0,0.1,0c0,0,0.1-0.1,0.1-0.1c0,0,0.1-0.1,0.1-0.1C35.8,9.2,35.8,9.1,35.8,9.1z"/>
	<path class="st0" d="M45.3,12.3c0,0.1,0,0.2-0.1,0.2h-1.3c-0.1,0-0.2-0.1-0.2-0.2l-0.2-0.6H42l-0.2,0.6c0,0.1-0.1,0.2-0.2,0.2h-1.3
		c-0.1,0-0.1-0.1-0.1-0.2l1.7-4.8c0,0,0-0.1,0.1-0.1c0,0,0.1,0,0.1,0h1.4c0,0,0.1,0,0.1,0.1s0.1,0.1,0.1,0.1L45.3,12.3z M42.4,10.5
		h0.7l-0.3-1.3L42.4,10.5z"/>
	<path class="st0" d="M49.9,11c0,0,0.1,0,0.1,0c0,0,0,0.1,0,0.1v1.2c0,0,0,0,0,0.1c0,0,0,0,0,0.1c0,0,0,0,0,0c0,0,0,0-0.1,0h-3.6
		c-0.1,0-0.2-0.1-0.2-0.2V7.5c0,0,0-0.1,0-0.1c0,0,0.1,0,0.1,0h1.3c0,0,0,0,0.1,0c0,0,0,0,0.1,0c0,0,0,0,0,0c0,0,0,0,0,0.1V11H49.9z
		"/>
	<path class="st0" d="M54.6,11c0,0,0.1,0,0.1,0c0,0,0,0.1,0,0.1v1.2c0,0,0,0,0,0.1c0,0,0,0,0,0.1s0,0,0,0c0,0,0,0-0.1,0H51
		c-0.1,0-0.2-0.1-0.2-0.2V7.5c0,0,0-0.1,0-0.1c0,0,0.1,0,0.1,0h1.3c0,0,0,0,0.1,0c0,0,0,0,0.1,0c0,0,0,0,0,0c0,0,0,0,0,0.1V11H54.6z
		"/>
	<path class="st0" d="M55.4,11.8c0-0.1,0-0.2,0.1-0.3c0-0.1,0.1-0.2,0.2-0.3c0.1-0.1,0.2-0.1,0.3-0.2c0.1,0,0.2-0.1,0.3-0.1
		c0.1,0,0.2,0,0.3,0.1c0.1,0,0.2,0.1,0.3,0.2c0.1,0.1,0.1,0.2,0.2,0.3c0,0.1,0.1,0.2,0.1,0.4c0,0.3,0,0.5-0.1,0.7
		c-0.1,0.2-0.1,0.4-0.2,0.5s-0.2,0.2-0.2,0.3c-0.1,0.1-0.1,0.1-0.2,0.1c0,0-0.1,0-0.1,0c0,0,0,0-0.1,0L56,13.3c0,0,0-0.1-0.1-0.1
		c0,0,0-0.1,0-0.1c0-0.1,0-0.1,0-0.1c0,0,0-0.1,0.1-0.1c0,0,0.1-0.1,0.1-0.1c0,0,0-0.1,0-0.2v0c-0.1,0-0.2,0-0.3-0.1
		c-0.1,0-0.2-0.1-0.2-0.2c-0.1-0.1-0.1-0.2-0.1-0.2C55.5,12,55.4,11.9,55.4,11.8z"/>
	<path class="st0" d="M27.1,15.5c0,0,0.1,0.1,0.1,0.1c0,0,0,0.1,0,0.1l-1,0.9c0,0,0,0-0.1,0c0,0,0,0-0.1,0c0,0-0.1-0.1-0.1-0.1
		s-0.1-0.1-0.2-0.1c-0.1,0-0.1,0-0.2-0.1c-0.1,0-0.2,0-0.2,0c-0.1,0-0.3,0-0.4,0.1c-0.1,0.1-0.2,0.1-0.3,0.2
		c-0.1,0.1-0.2,0.2-0.2,0.3c-0.1,0.1-0.1,0.3-0.1,0.4c0,0.1,0,0.3,0.1,0.4s0.1,0.2,0.2,0.3c0.1,0.1,0.2,0.2,0.3,0.2
		c0.1,0.1,0.3,0.1,0.4,0.1c0.1,0,0.3,0,0.4-0.1c0.1-0.1,0.3-0.1,0.4-0.2c0,0,0.1,0,0.1,0c0,0,0,0,0.1,0l1,0.9c0,0,0,0.1,0,0.1
		c0,0,0,0.1-0.1,0.1c-0.3,0.3-0.5,0.5-0.9,0.6C26,19.9,25.6,20,25.3,20c-0.2,0-0.5,0-0.7-0.1c-0.2-0.1-0.4-0.1-0.7-0.3
		c-0.2-0.1-0.4-0.2-0.6-0.4c-0.2-0.2-0.3-0.3-0.4-0.5c-0.1-0.2-0.2-0.4-0.3-0.6s-0.1-0.5-0.1-0.7c0-0.2,0-0.4,0.1-0.7
		c0.1-0.2,0.2-0.4,0.3-0.6c0.1-0.2,0.3-0.4,0.4-0.5s0.3-0.3,0.5-0.4s0.4-0.2,0.6-0.3c0.2-0.1,0.5-0.1,0.7-0.1c0.2,0,0.4,0,0.6,0.1
		c0.2,0,0.3,0.1,0.5,0.2c0.1,0.1,0.3,0.1,0.4,0.2C26.9,15.3,27,15.4,27.1,15.5z"/>
	<path class="st0" d="M27.3,17.4c0-0.2,0-0.5,0.1-0.7c0.1-0.2,0.2-0.4,0.3-0.6c0.1-0.2,0.3-0.4,0.4-0.5c0.2-0.2,0.4-0.3,0.6-0.4
		c0.2-0.1,0.4-0.2,0.6-0.3c0.2-0.1,0.5-0.1,0.7-0.1c0.2,0,0.5,0,0.7,0.1c0.2,0.1,0.4,0.2,0.6,0.3c0.2,0.1,0.4,0.3,0.6,0.4
		c0.2,0.2,0.3,0.3,0.4,0.5c0.1,0.2,0.2,0.4,0.3,0.6c0.1,0.2,0.1,0.5,0.1,0.7c0,0.2,0,0.5-0.1,0.7c-0.1,0.2-0.2,0.4-0.3,0.6
		c-0.1,0.2-0.3,0.4-0.4,0.5c-0.2,0.2-0.4,0.3-0.6,0.4c-0.2,0.1-0.4,0.2-0.6,0.3C30.5,20,30.2,20,30,20c-0.2,0-0.5,0-0.7-0.1
		c-0.2-0.1-0.4-0.2-0.6-0.3c-0.2-0.1-0.4-0.3-0.6-0.4c-0.2-0.2-0.3-0.3-0.4-0.5c-0.1-0.2-0.2-0.4-0.3-0.6
		C27.3,17.8,27.3,17.6,27.3,17.4z M28.9,17.4c0,0.1,0,0.3,0.1,0.4c0.1,0.1,0.1,0.2,0.2,0.3c0.1,0.1,0.2,0.2,0.3,0.2s0.3,0.1,0.4,0.1
		c0.1,0,0.3,0,0.4-0.1c0.1-0.1,0.2-0.1,0.3-0.2c0.1-0.1,0.2-0.2,0.2-0.3c0.1-0.1,0.1-0.3,0.1-0.4c0-0.1,0-0.3-0.1-0.4
		c-0.1-0.1-0.1-0.2-0.2-0.3s-0.2-0.2-0.3-0.2c-0.1-0.1-0.3-0.1-0.4-0.1c-0.1,0-0.3,0-0.4,0.1c-0.1,0.1-0.2,0.1-0.3,0.2
		c-0.1,0.1-0.2,0.2-0.2,0.3C29,17.1,28.9,17.2,28.9,17.4z"/>
	<path class="st0" d="M33.5,14.9c0,0,0-0.1,0-0.1c0,0,0.1,0,0.1,0h1.7c0.2,0,0.5,0,0.7,0.1c0.2,0.1,0.4,0.1,0.6,0.3
		c0.2,0.1,0.4,0.2,0.5,0.4c0.2,0.2,0.3,0.3,0.4,0.5c0.1,0.2,0.2,0.4,0.3,0.6s0.1,0.5,0.1,0.7c0,0.2,0,0.5-0.1,0.7
		c-0.1,0.2-0.2,0.4-0.3,0.6c-0.1,0.2-0.3,0.4-0.4,0.5c-0.2,0.2-0.3,0.3-0.5,0.4c-0.2,0.1-0.4,0.2-0.6,0.3c-0.2,0.1-0.5,0.1-0.7,0.1
		h-1.7c-0.1,0-0.2-0.1-0.2-0.2V14.9z M35.4,18.5c0.1,0,0.3,0,0.4-0.1c0.1-0.1,0.2-0.1,0.3-0.2c0.1-0.1,0.2-0.2,0.2-0.4
		c0.1-0.1,0.1-0.3,0.1-0.4c0-0.2,0-0.3-0.1-0.4c-0.1-0.1-0.1-0.3-0.2-0.3c-0.1-0.1-0.2-0.2-0.3-0.2c-0.1-0.1-0.3-0.1-0.4-0.1h-0.2
		v2.2H35.4z"/>
	<path class="st0" d="M42.5,14.8c0,0,0.1,0,0.1,0c0,0,0,0.1,0,0.1v1c0,0,0,0.1,0,0.1c0,0-0.1,0.1-0.1,0.1h-2.1v0.7h1.4
		c0,0,0.1,0,0.1,0c0,0,0,0,0,0.1v0.9c0,0,0,0,0,0.1c0,0-0.1,0-0.1,0h-1.4v0.7h2.2c0,0,0.1,0,0.1,0c0,0,0,0.1,0,0.1v1c0,0,0,0,0,0.1
		c0,0,0,0,0,0.1c0,0-0.1,0.1-0.1,0.1H39c-0.1,0-0.2-0.1-0.2-0.2v-4.8c0,0,0-0.1,0-0.1c0,0,0.1,0,0.1,0H42.5z"/>
	<path class="st0" d="M47.4,18.5c0,0,0.1,0,0.1,0c0,0,0,0.1,0,0.1v1.2c0,0,0,0,0,0.1c0,0,0,0,0,0.1c0,0,0,0,0,0c0,0,0,0-0.1,0h-3.6
		c-0.1,0-0.2-0.1-0.2-0.2v-4.8c0,0,0-0.1,0-0.1c0,0,0.1,0,0.1,0h1.3c0,0,0,0,0.1,0c0,0,0,0,0.1,0s0,0,0,0c0,0,0,0,0,0.1v3.5H47.4z"
		/>
	<path class="st0" d="M48.4,14.9c0,0,0-0.1,0-0.1c0,0,0.1,0,0.1,0h1.3c0,0,0.1,0,0.1,0c0,0,0.1,0.1,0.1,0.1v4.8
		c0,0.1-0.1,0.2-0.2,0.2h-1.3c-0.1,0-0.2-0.1-0.2-0.2V14.9z"/>
	<path class="st0" d="M54.4,14.9c0,0,0-0.1,0-0.1c0,0,0.1,0,0.1,0h1.3c0.1,0,0.1,0,0.1,0c0,0,0,0.1,0,0.1v4.9c0,0,0,0.1,0,0.1
		c0,0-0.1,0-0.1,0h-1.3c-0.1,0-0.1,0-0.2-0.1l-1.6-2.4v2.3c0,0.1-0.1,0.2-0.2,0.2h-1.3c-0.1,0-0.1,0-0.1,0c0,0,0-0.1,0-0.1v-4.8
		c0,0,0-0.1,0-0.1c0,0,0.1,0,0.1,0h1.5c0,0,0.1,0,0.1,0c0,0,0.1,0,0.1,0.1l1.4,2.2V14.9z"/>
	<path class="st0" d="M59.8,14.9c0,0,0.1-0.1,0.1-0.1c0.1,0,0.1,0,0.2,0h1.6c0,0,0,0,0.1,0c0,0,0,0,0,0c0,0,0,0,0,0.1l-1.4,2.3
		l1.5,2.5c0,0,0,0.1,0,0.1c0,0,0,0,0,0.1c0,0,0,0-0.1,0h-1.6c-0.1,0-0.1,0-0.2,0c-0.1,0-0.1-0.1-0.1-0.1l-1.1-2v2
		c0,0.1-0.1,0.2-0.2,0.2h-1.3c-0.1,0-0.2-0.1-0.2-0.2v-4.8c0,0,0-0.1,0-0.1c0,0,0.1,0,0.1,0h1.3c0,0,0.1,0,0.1,0
		c0,0,0.1,0.1,0.1,0.1v1.7L59.8,14.9z"/>
	<path class="st0" d="M62.4,19.2c0-0.1,0-0.2,0.1-0.3c0-0.1,0.1-0.2,0.2-0.3c0.1-0.1,0.2-0.1,0.3-0.2c0.1,0,0.2-0.1,0.3-0.1
		c0.1,0,0.2,0,0.3,0.1c0.1,0,0.2,0.1,0.3,0.2c0.1,0.1,0.1,0.2,0.2,0.3c0,0.1,0.1,0.2,0.1,0.3c0,0.1,0,0.2-0.1,0.3
		c0,0.1-0.1,0.2-0.2,0.3c-0.1,0.1-0.2,0.1-0.3,0.2c-0.1,0-0.2,0.1-0.3,0.1c-0.1,0-0.2,0-0.3-0.1c-0.1,0-0.2-0.1-0.3-0.2
		c-0.1-0.1-0.1-0.2-0.2-0.3C62.4,19.4,62.4,19.3,62.4,19.2z"/>
</g>
<g id="logo-mark">
	<path class="st0" d="M16.7,0.1C16.7,0,16.7,0,16.7,0.1C16.7,0,16.7,0,16.7,0.1l1.2,0c0,0,0,0,0,0c0,0,0,0,0,0v0.2c0,0,0,0,0,0
		c0,0,0,0,0,0h-0.4v1.3c0,0,0,0,0,0c0,0,0,0,0,0c0,0,0,0,0,0c0,0,0,0,0,0h-0.2c0,0,0,0,0,0c0,0,0,0,0,0s0,0,0,0c0,0,0,0,0,0V0.3
		h-0.4c0,0,0,0,0,0c0,0,0,0,0,0V0.1z"/>
	<path class="st0" d="M19,1.6C18.9,1.6,18.9,1.6,19,1.6C18.9,1.6,18.9,1.6,19,1.6c-0.1-0.2-0.2-0.4-0.2-0.5s-0.1-0.3-0.2-0.5l-0.1,1
		c0,0,0,0,0,0c0,0,0,0,0,0h-0.2c0,0-0.1,0-0.1-0.1l0.2-1.5c0,0,0,0,0,0c0,0,0,0,0,0h0.3c0,0,0,0,0,0c0,0,0,0,0,0
		c0,0.1,0.1,0.2,0.1,0.3c0,0.1,0.1,0.2,0.1,0.3l0.2,0.6l0.4-1.1v0c0,0,0,0,0,0c0,0,0,0,0,0h0.3c0,0,0,0,0,0c0,0,0,0,0,0L20,1.6
		c0,0,0,0,0,0c0,0,0,0,0,0h-0.2c0,0,0,0,0,0s0,0,0,0l-0.1-1l-0.4,1c0,0,0,0,0,0c0,0,0,0,0,0H19z"/>
	<path class="st0" d="M13.6,13.3h2.7c0.2,0,0.3,0.1,0.3,0.3v6.1c0,0.2-0.1,0.3-0.3,0.3H10C4.5,20,0,15.5,0,10v0C0,4.5,4.5,0,10,0
		l3,0c0.2,0,0.3,0.1,0.3,0.3V13C13.3,13.2,13.5,13.3,13.6,13.3z"/>
</g>
</svg>
