<?xml version="1.0" encoding="utf-8"?>
<!-- Generator: Adobe Illustrator 22.0.0, SVG Export Plug-In . SVG Version: 6.00 Build 0)  -->
<svg version="1.1" id="logo--typo-" xmlns="http://www.w3.org/2000/svg" xmlns:xlink="http://www.w3.org/1999/xlink" x="0px"
	 y="0px" viewBox="0 0 208 100" style="enable-background:new 0 0 208 100;" xml:space="preserve">
<style type="text/css">
	.st0{fill:#EFEBEA;}
	.st1{fill:#FFFFFF;}
</style>
<g>
	<g>
		<path class="st0" d="M1.4,1.4c0-0.2,0.1-0.4,0.2-0.5c0.1-0.1,0.3-0.2,0.6-0.2h12.1c1,0,2,0.2,2.9,0.6c0.9,0.4,1.7,1,2.4,1.7
			c0.7,0.7,1.2,1.5,1.6,2.4c0.4,0.9,0.6,1.9,0.6,2.9c0,0.9-0.1,1.7-0.4,2.4s-0.7,1.4-1.1,2c0.8,0.8,1.5,1.7,2,2.7
			c0.5,1.1,0.7,2.2,0.7,3.3c0,1-0.2,2-0.6,2.9c-0.4,0.9-1,1.7-1.7,2.4c-0.7,0.7-1.5,1.2-2.4,1.6c-0.9,0.4-1.9,0.6-2.9,0.6H2.2
			c-0.5,0-0.8-0.3-0.8-0.8V1.4z M13.5,8.4c0-0.5-0.2-0.9-0.5-1.3c-0.3-0.3-0.8-0.5-1.3-0.5H9.2v3.5h2.4c0.6,0,1-0.2,1.3-0.5
			C13.3,9.4,13.5,8.9,13.5,8.4z M14.1,18.1c0-0.2,0-0.5-0.1-0.7c-0.1-0.2-0.2-0.5-0.4-0.7c-0.2-0.2-0.4-0.3-0.6-0.5S12.5,16,12.3,16
			h-3v4.1h3c0.3,0,0.5-0.1,0.7-0.2c0.2-0.1,0.4-0.3,0.6-0.5c0.2-0.2,0.3-0.4,0.4-0.6C14.1,18.6,14.1,18.3,14.1,18.1z"/>
		<path class="st0" d="M44.6,0.6c0.2,0,0.4,0.1,0.5,0.2c0.2,0.1,0.2,0.3,0.2,0.6v4.8c0,0.2-0.1,0.4-0.2,0.6C45,6.9,44.8,7,44.6,7
			H34.1v3.5h7.1c0.2,0,0.4,0.1,0.5,0.2c0.1,0.1,0.2,0.2,0.2,0.4v4.7c0,0.1-0.1,0.2-0.2,0.4c-0.1,0.1-0.3,0.2-0.6,0.2h-7.1v3.4h10.8
			c0.2,0,0.4,0.1,0.5,0.2c0.1,0.1,0.2,0.3,0.2,0.6v4.9c0,0.1,0,0.2-0.1,0.3c0,0.1-0.1,0.2-0.2,0.3c-0.1,0.2-0.3,0.3-0.7,0.3H26.9
			c-0.5,0-0.8-0.3-0.8-0.8V1.4c0-0.2,0.1-0.4,0.2-0.5c0.1-0.1,0.3-0.2,0.6-0.2H44.6z"/>
		<path class="st0" d="M66.3,1.4c0-0.2,0.1-0.4,0.2-0.5c0.1-0.1,0.3-0.2,0.6-0.2h6.3c0.3,0,0.5,0.1,0.7,0.2c0.1,0.1,0.2,0.3,0.2,0.6
			v24.3c0,0.2-0.1,0.4-0.2,0.5c-0.1,0.1-0.3,0.1-0.5,0.1h-6.7c-0.3,0-0.6-0.2-0.8-0.6L58,14v11.6c0,0.5-0.3,0.8-0.8,0.8h-6.3
			c-0.3,0-0.5-0.1-0.6-0.2c-0.1-0.2-0.2-0.3-0.2-0.5V1.4c0-0.2,0.1-0.4,0.2-0.5c0.1-0.1,0.3-0.2,0.6-0.2h7.3c0.1,0,0.3,0,0.4,0.1
			c0.2,0.1,0.3,0.2,0.4,0.4l7.2,11V1.4z"/>
		<path class="st0" d="M98.3,0.6c0.2,0,0.4,0.1,0.5,0.2c0.2,0.1,0.2,0.3,0.2,0.6v4.8c0,0.2-0.1,0.4-0.2,0.6C98.7,6.9,98.5,7,98.3,7
			H87.8v3.5H95c0.2,0,0.4,0.1,0.5,0.2c0.2,0.1,0.2,0.2,0.2,0.4v4.7c0,0.1-0.1,0.2-0.2,0.4c-0.1,0.1-0.3,0.2-0.6,0.2h-7.1v3.4h10.8
			c0.2,0,0.4,0.1,0.5,0.2c0.1,0.1,0.2,0.3,0.2,0.6v4.9c0,0.1,0,0.2-0.1,0.3c0,0.1-0.1,0.2-0.2,0.3c-0.1,0.2-0.3,0.3-0.7,0.3H80.7
			c-0.5,0-0.8-0.3-0.8-0.8V1.4c0-0.2,0.1-0.4,0.2-0.5c0.1-0.1,0.3-0.2,0.6-0.2H98.3z"/>
		<path class="st0" d="M121.8,0.6c0.2,0,0.4,0.1,0.5,0.2c0.1,0.1,0.2,0.3,0.2,0.6v5.4c0,0.2-0.1,0.4-0.2,0.6
			c-0.1,0.2-0.3,0.3-0.6,0.3h-9.7V13h6.7c0.2,0,0.4,0.1,0.5,0.2c0.1,0.1,0.2,0.3,0.2,0.6v4.8c0,0.2-0.1,0.4-0.2,0.6
			c-0.1,0.2-0.3,0.3-0.6,0.3h-6.7v6.1c0,0.5-0.3,0.8-0.8,0.8h-7c-0.2,0-0.3-0.1-0.4-0.3c-0.1-0.1-0.1-0.3-0.1-0.5V1.4
			c0-0.1,0-0.2,0-0.2c0,0,0-0.1,0-0.1c0.1-0.1,0.2-0.2,0.3-0.3c0.1-0.1,0.2-0.1,0.3-0.2H121.8z"/>
		<path class="st0" d="M126.5,1.4c0-0.2,0.1-0.4,0.2-0.5c0.1-0.1,0.3-0.2,0.6-0.2h6.7c0.2,0,0.4,0.1,0.6,0.2
			c0.2,0.1,0.3,0.3,0.3,0.6v24.2c0,0.5-0.3,0.8-0.8,0.8h-6.7c-0.5,0-0.8-0.3-0.8-0.8V1.4z"/>
		<path class="st0" d="M160.3,0.6c0.2,0,0.4,0.1,0.5,0.2c0.1,0.1,0.2,0.3,0.2,0.6v5.6c0,0.2-0.1,0.4-0.2,0.6
			c-0.1,0.2-0.3,0.3-0.6,0.3h-6.2v17.8c0,0.5-0.3,0.8-0.8,0.8h-6.7c-0.5,0-0.8-0.3-0.8-0.8V7.8h-6.1c-0.5,0-0.8-0.3-0.8-0.8V1.4
			c0-0.5,0.3-0.8,0.8-0.8H160.3z"/>
		<path class="st0" d="M168.8,16.8c0.4,0.3,0.9,0.6,1.3,1c0.4,0.3,0.8,0.6,1.2,0.9c0.4,0.3,0.8,0.5,1.2,0.6c0.4,0.2,0.8,0.3,1.2,0.3
			c0.6,0,1-0.1,1.3-0.3c0.3-0.2,0.4-0.6,0.4-1c0-0.1,0-0.3-0.1-0.5c-0.1-0.2-0.2-0.3-0.4-0.5c-0.2-0.2-0.5-0.3-0.8-0.5
			c-0.4-0.2-0.8-0.3-1.3-0.5h0.1c-1.7-0.4-3-1-4.1-1.6c-1.1-0.6-1.9-1.3-2.5-2c-0.6-0.7-1-1.6-1.3-2.4c-0.2-0.9-0.3-1.8-0.3-2.7
			c0-1.1,0.2-2.1,0.7-3c0.5-0.9,1.1-1.7,1.9-2.3c0.8-0.6,1.8-1.1,3-1.5c1.2-0.4,2.5-0.5,3.9-0.5c0.9,0,1.7,0.1,2.5,0.2
			c0.8,0.1,1.6,0.3,2.3,0.5c0.8,0.3,1.5,0.6,2.2,1s1.4,1,2,1.7c0.2,0.3,0.3,0.6,0.2,0.9c-0.1,0.3-0.3,0.6-0.5,0.9l-2.9,3.3
			c-0.1,0.2-0.3,0.3-0.4,0.3c-0.1,0-0.3,0.1-0.4,0c-0.2,0-0.3-0.1-0.5-0.2c-0.2-0.1-0.3-0.2-0.5-0.3c-0.3-0.2-0.6-0.4-0.9-0.6
			c-0.3-0.2-0.6-0.4-0.9-0.5c-0.3-0.1-0.6-0.2-0.9-0.3c-0.3-0.1-0.6-0.1-0.8-0.1c-0.2,0-0.4,0-0.6,0.1c-0.2,0-0.4,0.1-0.6,0.2
			c-0.2,0.1-0.3,0.2-0.4,0.4c-0.1,0.2-0.2,0.4-0.2,0.6c0,0.3,0.1,0.5,0.3,0.7s0.4,0.3,0.7,0.5c0.3,0.1,0.6,0.2,0.9,0.3
			c0.3,0.1,0.7,0.2,1,0.3c1.2,0.4,2.4,0.8,3.4,1.2c1,0.4,1.9,0.9,2.7,1.5c0.7,0.6,1.3,1.3,1.7,2.2c0.4,0.9,0.6,2,0.6,3.3
			c0,1.3-0.3,2.6-0.8,3.6c-0.5,1.1-1.3,1.9-2.2,2.7c-0.9,0.7-2.1,1.3-3.4,1.6c-1.3,0.4-2.7,0.6-4.2,0.6c-0.9,0-1.7-0.1-2.6-0.4
			c-0.9-0.2-1.8-0.5-2.6-0.9c-0.8-0.4-1.6-0.8-2.4-1.4c-0.8-0.5-1.4-1.1-2-1.6c-0.2-0.2-0.3-0.3-0.4-0.5c-0.1-0.1-0.2-0.2-0.2-0.4
			c0-0.1,0-0.2,0.1-0.3c0.1-0.1,0.2-0.3,0.3-0.4l3.5-4c0.2-0.1,0.3-0.2,0.4-0.3c0.1-0.1,0.2-0.1,0.3-0.1c0.1,0,0.2,0,0.4,0.1
			C168.5,16.5,168.6,16.6,168.8,16.8z"/>
	</g>
	<g>
		<path class="st0" d="M19.3,36.8c0.2,0,0.4,0.1,0.5,0.2c0.1,0.1,0.2,0.3,0.2,0.6V43c0,0.2-0.1,0.4-0.2,0.6
			c-0.1,0.2-0.3,0.3-0.6,0.3H9.7v5.4h6.7c0.2,0,0.4,0.1,0.5,0.2c0.1,0.1,0.2,0.3,0.2,0.6v4.8c0,0.2-0.1,0.4-0.2,0.6
			c-0.1,0.2-0.3,0.3-0.6,0.3H9.7v6.1c0,0.5-0.3,0.8-0.8,0.8h-7c-0.2,0-0.3-0.1-0.4-0.3c-0.1-0.1-0.1-0.3-0.1-0.5V37.6
			c0-0.1,0-0.2,0-0.2c0,0,0-0.1,0-0.1c0.1-0.1,0.2-0.2,0.3-0.3c0.1-0.1,0.2-0.1,0.3-0.2H19.3z"/>
		<path class="st0" d="M22.5,49.7c0-1.2,0.2-2.4,0.5-3.5c0.3-1.1,0.8-2.2,1.4-3.2c0.6-1,1.3-1.9,2.2-2.7c0.8-0.8,1.8-1.5,2.8-2.1
			c1-0.6,2.1-1,3.2-1.3c1.1-0.3,2.3-0.5,3.5-0.5c1.2,0,2.4,0.2,3.5,0.5c1.1,0.3,2.2,0.8,3.2,1.3c1,0.6,1.9,1.3,2.8,2.1
			c0.8,0.8,1.6,1.7,2.2,2.7c0.6,1,1.1,2,1.4,3.2c0.3,1.1,0.5,2.3,0.5,3.5c0,1.2-0.2,2.4-0.5,3.5c-0.3,1.1-0.8,2.2-1.4,3.1
			c-0.6,1-1.3,1.9-2.2,2.7c-0.8,0.8-1.8,1.5-2.8,2.1c-1,0.6-2.1,1-3.2,1.3c-1.1,0.3-2.3,0.5-3.5,0.5c-1.2,0-2.4-0.2-3.5-0.5
			c-1.1-0.3-2.2-0.8-3.2-1.3c-1-0.6-1.9-1.3-2.8-2.1c-0.8-0.8-1.6-1.7-2.2-2.7c-0.6-1-1.1-2-1.4-3.1C22.7,52.1,22.5,50.9,22.5,49.7z
			 M30.7,49.6c0,0.7,0.1,1.4,0.4,2.1c0.3,0.6,0.7,1.2,1.2,1.7c0.5,0.5,1.1,0.8,1.7,1.1c0.7,0.3,1.3,0.4,2.1,0.4
			c0.7,0,1.4-0.1,2.1-0.4c0.7-0.3,1.2-0.6,1.7-1.1c0.5-0.5,0.9-1,1.2-1.7c0.3-0.6,0.4-1.3,0.4-2.1c0-0.7-0.1-1.4-0.4-2.1
			c-0.3-0.6-0.7-1.2-1.2-1.7c-0.5-0.5-1.1-0.8-1.7-1.1c-0.7-0.3-1.4-0.4-2.1-0.4c-0.7,0-1.4,0.1-2.1,0.4c-0.7,0.3-1.2,0.7-1.7,1.1
			c-0.5,0.5-0.9,1-1.2,1.7C30.9,48.2,30.7,48.9,30.7,49.6z"/>
		<path class="st0" d="M53.5,37.6c0-0.2,0.1-0.4,0.2-0.5c0.1-0.1,0.3-0.2,0.6-0.2h11.6c1.2,0,2.3,0.2,3.3,0.7c1,0.4,1.9,1,2.7,1.8
			c0.7,0.8,1.3,1.7,1.8,2.7c0.4,1,0.6,2.1,0.6,3.3c0,0.8-0.1,1.5-0.3,2.2c-0.2,0.7-0.5,1.4-0.8,2c-0.4,0.6-0.8,1.2-1.3,1.7
			c-0.5,0.5-1,1-1.7,1.3l4.9,9.2c0.1,0.2,0,0.4-0.1,0.6c-0.1,0.1-0.3,0.2-0.5,0.2h-7c-0.2,0-0.5-0.1-0.7-0.2
			c-0.2-0.1-0.3-0.3-0.4-0.5l-3.7-7.3h-1v7.3c0,0.5-0.3,0.8-0.8,0.8h-6.7c-0.5,0-0.8-0.3-0.8-0.8V37.6z M66.3,45.4
			c0-0.2,0-0.5-0.1-0.7c-0.1-0.2-0.2-0.5-0.4-0.7c-0.2-0.2-0.4-0.3-0.6-0.5c-0.2-0.1-0.5-0.2-0.7-0.2h-2.7v4.1h2.7
			c0.3,0,0.5-0.1,0.7-0.2c0.2-0.1,0.4-0.3,0.6-0.5c0.2-0.2,0.3-0.4,0.4-0.6C66.3,45.9,66.3,45.7,66.3,45.4z"/>
		<path class="st0" d="M113.7,61.7c0.2,0.5,0,0.8-0.4,0.8h-6.6c-0.6,0-0.9-0.3-1.1-0.8l-1-3h-7.4l-1,3c-0.2,0.5-0.6,0.8-1.1,0.8
			h-6.6c-0.5,0-0.7-0.3-0.5-0.8l8.6-24.2c0-0.2,0.2-0.4,0.3-0.5s0.4-0.2,0.6-0.2h6.8c0.2,0,0.4,0.1,0.5,0.3c0.2,0.2,0.3,0.3,0.3,0.5
			L113.7,61.7z M99.2,52.4h3.3l-1.6-6.5L99.2,52.4z"/>
		<path class="st0" d="M136.4,55.1c0.2,0,0.4,0.1,0.5,0.2c0.1,0.1,0.2,0.3,0.2,0.6v5.8c0,0.1,0,0.2-0.1,0.3c0,0.1-0.1,0.2-0.2,0.3
			s-0.1,0.1-0.2,0.2c-0.1,0.1-0.2,0.1-0.3,0.1h-18c-0.5,0-0.8-0.3-0.8-0.8V37.6c0-0.2,0.1-0.4,0.2-0.5c0.1-0.1,0.3-0.2,0.6-0.2h6.4
			c0.1,0,0.2,0,0.3,0.1c0.1,0,0.2,0.1,0.3,0.2c0.1,0.1,0.1,0.2,0.2,0.2c0.1,0.1,0.1,0.2,0.1,0.3v17.5H136.4z"/>
		<path class="st0" d="M160.2,55.1c0.2,0,0.4,0.1,0.5,0.2c0.1,0.1,0.2,0.3,0.2,0.6v5.8c0,0.1,0,0.2-0.1,0.3c0,0.1-0.1,0.2-0.2,0.3
			s-0.1,0.1-0.2,0.2c-0.1,0.1-0.2,0.1-0.3,0.1h-18c-0.5,0-0.8-0.3-0.8-0.8V37.6c0-0.2,0.1-0.4,0.2-0.5c0.1-0.1,0.3-0.2,0.6-0.2h6.4
			c0.1,0,0.2,0,0.3,0.1c0.1,0,0.2,0.1,0.3,0.2c0.1,0.1,0.1,0.2,0.2,0.2c0.1,0.1,0.1,0.2,0.1,0.3v17.5H160.2z"/>
		<path class="st0" d="M164.3,59c0-0.6,0.1-1.1,0.3-1.6c0.2-0.5,0.5-0.9,0.9-1.3c0.4-0.4,0.8-0.6,1.3-0.8c0.5-0.2,1-0.3,1.5-0.3
			c0.6,0,1.1,0.1,1.6,0.3c0.5,0.2,0.9,0.5,1.3,0.9c0.4,0.4,0.6,0.8,0.8,1.4c0.2,0.5,0.3,1.1,0.3,1.8c0,1.4-0.1,2.6-0.4,3.6
			c-0.3,1-0.6,1.9-1,2.6c-0.4,0.7-0.8,1.2-1.2,1.5c-0.4,0.3-0.7,0.5-1,0.5c-0.2,0-0.3,0-0.4-0.1c-0.1,0-0.2-0.1-0.3-0.2l-0.9-0.7
			c-0.1-0.1-0.2-0.3-0.3-0.4c-0.1-0.2-0.1-0.3-0.1-0.4c0-0.3,0.1-0.5,0.2-0.7c0.1-0.2,0.2-0.4,0.4-0.5s0.3-0.4,0.4-0.6
			c0.1-0.2,0.2-0.5,0.2-0.8V63c-0.4-0.1-0.9-0.2-1.3-0.5c-0.4-0.2-0.8-0.5-1.1-0.9c-0.3-0.4-0.6-0.8-0.7-1.2
			C164.4,60,164.3,59.5,164.3,59z"/>
	</g>
	<g>
		<path class="st1" d="M22.7,77.3c0.2,0.1,0.3,0.3,0.4,0.5c0.1,0.2,0,0.4-0.2,0.6L18,83c-0.1,0.1-0.2,0.2-0.3,0.2
			c-0.1,0-0.2-0.1-0.4-0.2c-0.2-0.2-0.4-0.4-0.7-0.6c-0.2-0.2-0.5-0.4-0.8-0.5c-0.3-0.1-0.6-0.2-1-0.3c-0.4-0.1-0.8-0.1-1.2-0.1
			c-0.7,0-1.4,0.1-2,0.4c-0.6,0.3-1.2,0.7-1.7,1.1c-0.5,0.5-0.9,1-1.1,1.7c-0.3,0.6-0.4,1.3-0.4,2c0,0.6,0.1,1.3,0.4,1.9
			c0.3,0.6,0.6,1.2,1.1,1.7c0.5,0.5,1,0.9,1.7,1.2c0.6,0.3,1.3,0.5,2,0.5c0.7,0,1.4-0.1,2.1-0.4c0.7-0.3,1.3-0.7,1.8-1.2
			c0.1-0.1,0.3-0.2,0.4-0.2c0.1,0,0.2,0.1,0.4,0.2l4.9,4.7c0.2,0.2,0.2,0.4,0.2,0.6c-0.1,0.2-0.2,0.4-0.4,0.5
			c-1.3,1.3-2.7,2.3-4.3,2.9c-1.5,0.6-3.1,0.9-4.7,0.9c-1.2,0-2.4-0.1-3.5-0.4C9.1,99.2,8,98.8,7,98.3c-1-0.5-2-1.2-2.8-2
			c-0.9-0.8-1.6-1.7-2.2-2.6c-0.6-1-1.1-2-1.4-3.2C0.2,89.3,0,88.1,0,86.8c0-1.1,0.2-2.2,0.5-3.3c0.3-1.1,0.8-2.1,1.3-3.1
			c0.6-1,1.3-1.9,2.1-2.7c0.8-0.8,1.7-1.5,2.7-2.1c1-0.6,2.1-1.1,3.2-1.4c1.1-0.3,2.3-0.5,3.6-0.5c1.1,0,2.1,0.1,3,0.3
			c0.9,0.2,1.7,0.5,2.4,0.8c0.7,0.3,1.4,0.7,2,1.2S22.1,76.8,22.7,77.3z"/>
		<path class="st1" d="M23.6,86.8c0-1.2,0.2-2.4,0.5-3.5c0.3-1.1,0.8-2.2,1.4-3.2c0.6-1,1.3-1.9,2.2-2.7c0.8-0.8,1.8-1.5,2.8-2.1
			c1-0.6,2.1-1,3.2-1.3c1.1-0.3,2.3-0.5,3.5-0.5c1.2,0,2.4,0.2,3.5,0.5c1.1,0.3,2.2,0.8,3.2,1.3c1,0.6,1.9,1.3,2.8,2.1
			c0.8,0.8,1.6,1.7,2.2,2.7c0.6,1,1.1,2,1.4,3.2c0.3,1.1,0.5,2.3,0.5,3.5c0,1.2-0.2,2.4-0.5,3.5c-0.3,1.1-0.8,2.2-1.4,3.1
			c-0.6,1-1.3,1.9-2.2,2.7c-0.8,0.8-1.8,1.5-2.8,2.1c-1,0.6-2.1,1-3.2,1.3c-1.1,0.3-2.3,0.5-3.5,0.5c-1.2,0-2.4-0.2-3.5-0.5
			c-1.1-0.3-2.2-0.8-3.2-1.3c-1-0.6-1.9-1.3-2.8-2.1c-0.8-0.8-1.6-1.7-2.2-2.7c-0.6-1-1.1-2-1.4-3.1C23.8,89.2,23.6,88,23.6,86.8z
			 M31.8,86.8c0,0.7,0.1,1.4,0.4,2.1c0.3,0.6,0.7,1.2,1.2,1.7c0.5,0.5,1.1,0.8,1.7,1.1c0.7,0.3,1.3,0.4,2.1,0.4
			c0.7,0,1.4-0.1,2.1-0.4c0.7-0.3,1.2-0.6,1.7-1.1c0.5-0.5,0.9-1,1.2-1.7c0.3-0.6,0.4-1.3,0.4-2.1c0-0.7-0.1-1.4-0.4-2.1
			c-0.3-0.6-0.7-1.2-1.2-1.7c-0.5-0.5-1.1-0.8-1.7-1.1c-0.7-0.3-1.4-0.4-2.1-0.4c-0.7,0-1.4,0.1-2.1,0.4c-0.7,0.3-1.2,0.7-1.7,1.1
			c-0.5,0.5-0.9,1-1.2,1.7C32,85.3,31.8,86,31.8,86.8z"/>
		<path class="st1" d="M54.7,74.7c0-0.2,0.1-0.4,0.2-0.5c0.1-0.1,0.3-0.2,0.6-0.2h8.7c1.2,0,2.4,0.2,3.5,0.4
			c1.1,0.3,2.2,0.7,3.1,1.3c1,0.5,1.9,1.2,2.7,2c0.8,0.8,1.5,1.6,2.1,2.6c0.6,1,1,2,1.3,3.1c0.3,1.1,0.5,2.3,0.5,3.5
			c0,1.2-0.2,2.4-0.5,3.5c-0.3,1.1-0.8,2.1-1.3,3.1c-0.6,1-1.3,1.8-2.1,2.6c-0.8,0.8-1.7,1.4-2.7,2c-1,0.5-2,1-3.1,1.3
			c-1.1,0.3-2.3,0.4-3.5,0.4h-8.7c-0.5,0-0.8-0.3-0.8-0.8V74.7z M64.1,92.3c0.7,0,1.4-0.1,2.1-0.4c0.7-0.3,1.2-0.7,1.7-1.2
			c0.5-0.5,0.9-1.1,1.2-1.8c0.3-0.7,0.4-1.4,0.4-2.2s-0.1-1.5-0.4-2.1c-0.3-0.7-0.7-1.3-1.2-1.7c-0.5-0.5-1.1-0.9-1.7-1.2
			c-0.7-0.3-1.4-0.4-2.1-0.4h-1.2v11H64.1z"/>
		<path class="st1" d="M99.9,73.9c0.2,0,0.4,0.1,0.5,0.2c0.2,0.1,0.2,0.3,0.2,0.6v4.8c0,0.2-0.1,0.4-0.2,0.6
			c-0.1,0.2-0.3,0.3-0.6,0.3H89.4v3.5h7.1c0.2,0,0.4,0.1,0.5,0.2c0.2,0.1,0.2,0.2,0.2,0.4v4.7c0,0.1-0.1,0.2-0.2,0.4
			c-0.1,0.1-0.3,0.2-0.6,0.2h-7.1v3.4h10.8c0.2,0,0.4,0.1,0.5,0.2c0.1,0.1,0.2,0.3,0.2,0.6v4.9c0,0.1,0,0.2-0.1,0.3
			c0,0.1-0.1,0.2-0.2,0.3c-0.1,0.2-0.3,0.3-0.7,0.3H82.2c-0.5,0-0.8-0.3-0.8-0.8V74.7c0-0.2,0.1-0.4,0.2-0.5
			c0.1-0.1,0.3-0.2,0.6-0.2H99.9z"/>
		<path class="st1" d="M124.2,92.3c0.2,0,0.4,0.1,0.5,0.2c0.1,0.1,0.2,0.3,0.2,0.6v5.8c0,0.1,0,0.2-0.1,0.3c0,0.1-0.1,0.2-0.2,0.3
			c-0.1,0.1-0.2,0.1-0.2,0.2c-0.1,0.1-0.2,0.1-0.3,0.1h-18c-0.5,0-0.8-0.3-0.8-0.8V74.7c0-0.2,0.1-0.4,0.2-0.5
			c0.1-0.1,0.3-0.2,0.6-0.2h6.4c0.1,0,0.2,0,0.3,0.1c0.1,0,0.2,0.1,0.3,0.2s0.2,0.2,0.2,0.2c0.1,0.1,0.1,0.2,0.1,0.3v17.5H124.2z"/>
		<path class="st1" d="M129.1,74.7c0-0.2,0.1-0.4,0.2-0.5c0.1-0.1,0.3-0.2,0.6-0.2h6.7c0.2,0,0.4,0.1,0.6,0.2
			c0.2,0.1,0.3,0.3,0.3,0.6v24.2c0,0.5-0.3,0.8-0.8,0.8h-6.7c-0.5,0-0.8-0.3-0.8-0.8V74.7z"/>
		<path class="st1" d="M159.3,74.7c0-0.2,0.1-0.4,0.2-0.5c0.1-0.1,0.3-0.2,0.6-0.2h6.3c0.3,0,0.5,0.1,0.7,0.2
			c0.1,0.1,0.2,0.3,0.2,0.6V99c0,0.2-0.1,0.4-0.2,0.5c-0.1,0.1-0.3,0.1-0.5,0.1h-6.7c-0.3,0-0.6-0.2-0.8-0.6L151,87.3v11.6
			c0,0.5-0.3,0.8-0.8,0.8h-6.3c-0.3,0-0.5-0.1-0.6-0.2c-0.1-0.2-0.2-0.3-0.2-0.5V74.7c0-0.2,0.1-0.4,0.2-0.5
			c0.1-0.1,0.3-0.2,0.6-0.2h7.3c0.1,0,0.3,0,0.4,0.1c0.2,0.1,0.3,0.2,0.4,0.4l7.2,11V74.7z"/>
		<path class="st1" d="M186.3,74.7c0.1-0.2,0.4-0.4,0.6-0.5c0.3-0.1,0.5-0.2,0.8-0.2h8.2c0.1,0,0.2,0,0.3,0.1
			c0.1,0.1,0.1,0.1,0.1,0.2c0,0.1,0,0.2-0.2,0.4L189,86.1l7.3,12.7c0.1,0.2,0.1,0.3,0.1,0.4c0,0.1,0,0.2-0.1,0.3
			c-0.1,0.1-0.2,0.1-0.3,0.1h-7.8c-0.3,0-0.5-0.1-0.8-0.2c-0.3-0.1-0.4-0.3-0.6-0.5l-5.6-10v10c0,0.5-0.3,0.8-0.8,0.8h-6.7
			c-0.5,0-0.8-0.3-0.8-0.8V74.7c0-0.2,0.1-0.4,0.2-0.5c0.1-0.1,0.3-0.2,0.6-0.2h6.7c0.2,0,0.4,0.1,0.5,0.2c0.2,0.1,0.3,0.3,0.3,0.6
			v8.6L186.3,74.7z"/>
		<path class="st1" d="M199.1,96c0-0.6,0.1-1.1,0.3-1.6c0.2-0.5,0.5-0.9,0.9-1.3c0.4-0.4,0.8-0.7,1.3-0.9c0.5-0.2,1-0.3,1.5-0.3
			c0.6,0,1.1,0.1,1.6,0.3c0.5,0.2,0.9,0.5,1.3,0.9c0.4,0.4,0.6,0.8,0.8,1.3c0.2,0.5,0.3,1,0.3,1.6c0,0.5-0.1,1.1-0.3,1.5
			c-0.2,0.5-0.5,0.9-0.8,1.3s-0.8,0.7-1.3,0.9c-0.5,0.2-1,0.3-1.6,0.3c-0.5,0-1.1-0.1-1.5-0.3c-0.5-0.2-0.9-0.5-1.3-0.9
			s-0.7-0.8-0.9-1.3C199.2,97,199.1,96.5,199.1,96z"/>
	</g>
</g>
</svg>
