<?xml version="1.0" encoding="utf-8"?>
<!-- Generator: Adobe Illustrator 22.0.0, SVG Export Plug-In . SVG Version: 6.00 Build 0)  -->
<svg version="1.1" id="Layer_1" xmlns:svg="http://www.w3.org/2000/svg"
	 xmlns="http://www.w3.org/2000/svg" xmlns:xlink="http://www.w3.org/1999/xlink" x="0px" y="0px" viewBox="0 0 196.2 72"
	 style="enable-background:new 0 0 196.2 72;" xml:space="preserve">
<path d="M21.6,71c-5.8-0.2-10.6-1.8-14.4-4.8c-0.7-0.6-2.4-2.3-3-3c-1.4-1.9-2.5-3.8-3.1-5.8c-2.1-6.3-1-14.6,3.1-23.8
	c3.5-7.8,9-15.5,18.5-26.3C24.1,5.6,28.3,1,28.3,1s-0.2,0.4-0.5,0.9c-2.5,4.2-4.6,9-5.8,13.3c-1.9,6.8-1.6,12.6,0.7,17.2
	c1.6,3.1,4.3,5.8,7.3,7.3c5.3,2.6,13.1,2.8,22.7,0.6c0.7-0.2,33.2-8.8,72.3-19.2c39.2-10.4,71.1-18.9,71.2-18.9
	c0,0-90.9,39-138.1,59.1c-7.5,3.2-9.5,4-13,5.2C36.2,69.7,28.1,71.2,21.6,71z"/>
</svg>
