<?xml version="1.0" encoding="utf-8"?>
<!-- Generator: Adobe Illustrator 22.0.0, SVG Export Plug-In . SVG Version: 6.00 Build 0)  -->
<svg version="1.1" id="logo-codelink" xmlns="http://www.w3.org/2000/svg" xmlns:xlink="http://www.w3.org/1999/xlink" x="0px"
	 y="0px" viewBox="0 0 392 50" style="enable-background:new 0 0 392 50;" xml:space="preserve">
<style type="text/css">
	.st0{fill:#0087C5;}
</style>
<g id="CODELINK._1_">
	<path class="st0" d="M43,7.1c0.3,0.3,0.6,0.6,0.7,1c0.1,0.4,0,0.8-0.3,1.2L34,17.9c-0.2,0.2-0.5,0.4-0.7,0.4
		c-0.2,0-0.4-0.1-0.8-0.3c-0.4-0.4-0.8-0.8-1.3-1.2c-0.5-0.4-1-0.7-1.5-0.9c-0.6-0.3-1.2-0.4-1.9-0.6c-0.7-0.1-1.5-0.2-2.3-0.2
		c-1.4,0-2.6,0.3-3.9,0.8c-1.2,0.5-2.3,1.3-3.2,2.2c-0.9,0.9-1.6,2-2.2,3.2c-0.5,1.2-0.8,2.5-0.8,3.8c0,1.2,0.3,2.4,0.8,3.6
		s1.2,2.3,2.1,3.2c0.9,0.9,1.9,1.7,3.2,2.3c1.2,0.6,2.5,0.9,3.9,0.9c1.4,0,2.7-0.3,4-0.8c1.3-0.5,2.4-1.3,3.3-2.3
		c0.3-0.2,0.5-0.4,0.7-0.4c0.2,0,0.4,0.1,0.7,0.4l9.3,9c0.3,0.4,0.4,0.8,0.3,1.2c-0.1,0.4-0.3,0.7-0.7,0.9c-2.5,2.5-5.2,4.3-8.1,5.4
		c-2.9,1.1-5.9,1.7-8.9,1.7c-2.3,0-4.5-0.3-6.7-0.8c-2.2-0.6-4.2-1.3-6.2-2.4c-1.9-1-3.7-2.3-5.3-3.8c-1.6-1.5-3-3.1-4.2-5
		C2.5,36.2,1.6,34.2,1,32c-0.7-2.2-1-4.5-1-7c0-2.1,0.3-4.2,0.9-6.3c0.6-2.1,1.4-4,2.5-5.9C4.5,11,5.8,9.3,7.4,7.7s3.2-2.9,5.1-4.1
		s3.9-2,6.1-2.7c2.2-0.6,4.4-1,6.8-1c2.1,0,4,0.2,5.7,0.6c1.7,0.4,3.2,0.9,4.6,1.5c1.4,0.6,2.7,1.4,3.9,2.2
		C40.7,5.2,41.9,6.1,43,7.1z"/>
	<path class="st0" d="M44.7,25c0-2.3,0.3-4.5,0.9-6.7c0.6-2.1,1.5-4.1,2.6-6c1.1-1.9,2.5-3.6,4.1-5.1c1.6-1.5,3.3-2.8,5.2-3.9
		c1.9-1.1,3.9-1.9,6.1-2.5S68,0,70.3,0c2.3,0,4.5,0.3,6.7,0.9s4.2,1.4,6.1,2.5c1.9,1.1,3.6,2.4,5.2,3.9c1.6,1.5,2.9,3.2,4.1,5.1
		c1.1,1.9,2,3.9,2.7,6c0.6,2.1,0.9,4.3,0.9,6.7c0,2.3-0.3,4.5-0.9,6.7c-0.6,2.1-1.5,4.1-2.7,6c-1.1,1.8-2.5,3.5-4.1,5
		c-1.6,1.5-3.3,2.8-5.2,3.9c-1.9,1.1-3.9,1.9-6.1,2.5c-2.2,0.6-4.4,0.9-6.7,0.9c-2.3,0-4.5-0.3-6.7-0.9c-2.2-0.6-4.2-1.4-6.1-2.5
		c-1.9-1.1-3.6-2.4-5.2-3.9c-1.6-1.5-2.9-3.2-4.1-5c-1.1-1.8-2-3.8-2.6-6C45,29.6,44.7,27.4,44.7,25z M60.2,25
		c0,1.4,0.3,2.7,0.8,3.9c0.5,1.2,1.3,2.3,2.2,3.1c0.9,0.9,2,1.6,3.2,2.1c1.2,0.5,2.5,0.8,3.9,0.8c1.4,0,2.7-0.3,4-0.8
		c1.2-0.5,2.3-1.2,3.3-2.1c0.9-0.9,1.7-1.9,2.2-3.1c0.5-1.2,0.8-2.5,0.8-3.9c0-1.4-0.3-2.7-0.8-3.9c-0.5-1.2-1.3-2.3-2.2-3.2
		c-0.9-0.9-2-1.6-3.3-2.1c-1.2-0.5-2.6-0.8-4-0.8c-1.4,0-2.7,0.3-3.9,0.8c-1.2,0.5-2.3,1.2-3.2,2.1c-0.9,0.9-1.7,2-2.2,3.2
		C60.5,22.3,60.2,23.6,60.2,25z"/>
	<path class="st0" d="M103.4,2.2c0-0.4,0.1-0.7,0.4-1c0.3-0.3,0.6-0.4,1.1-0.4h16.5c2.3,0,4.5,0.3,6.6,0.9c2.1,0.6,4.1,1.4,6,2.4
		c1.8,1,3.5,2.3,5.1,3.7c1.5,1.5,2.8,3.1,3.9,4.9c1.1,1.8,1.9,3.8,2.5,5.9s0.9,4.3,0.9,6.6c0,2.3-0.3,4.5-0.9,6.6
		c-0.6,2.1-1.4,4-2.5,5.8c-1.1,1.8-2.4,3.4-3.9,4.9c-1.5,1.5-3.2,2.7-5,3.7c-1.8,1-3.8,1.8-6,2.4c-2.1,0.6-4.3,0.8-6.7,0.8h-16.5
		c-1,0-1.4-0.5-1.4-1.4V2.2z M121.2,35.4c1.4,0,2.7-0.3,4-0.8c1.2-0.5,2.3-1.3,3.2-2.2c0.9-0.9,1.6-2.1,2.2-3.3
		c0.5-1.3,0.8-2.6,0.8-4.1c0-1.4-0.3-2.8-0.8-4.1c-0.5-1.3-1.3-2.4-2.2-3.3c-0.9-0.9-2-1.7-3.2-2.2s-2.6-0.8-4-0.9h-2.4v20.9H121.2z
		"/>
	<path class="st0" d="M188.9,0.7c0.4,0,0.7,0.1,1,0.4c0.3,0.2,0.4,0.6,0.4,1.1v9.1c0,0.3-0.1,0.7-0.4,1c-0.3,0.4-0.6,0.6-1,0.6
		h-19.8v6.7h13.5c0.4,0,0.7,0.1,1,0.3c0.3,0.2,0.4,0.5,0.4,0.8v8.9c0,0.2-0.1,0.5-0.4,0.7c-0.3,0.3-0.6,0.4-1,0.4h-13.5V37h20.5
		c0.4,0,0.7,0.1,1,0.4c0.3,0.3,0.4,0.6,0.4,1.1v9.2c0,0.2,0,0.4-0.1,0.6c-0.1,0.2-0.2,0.4-0.4,0.6c-0.2,0.3-0.6,0.5-1.2,0.5h-33.8
		c-1,0-1.4-0.5-1.4-1.4V2.2c0-0.4,0.1-0.7,0.4-1c0.2-0.3,0.6-0.4,1.1-0.4H188.9z"/>
	<path class="st0" d="M234.8,35.3c0.4,0,0.7,0.1,1,0.4c0.3,0.3,0.4,0.6,0.4,1.1v10.9c0,0.2,0,0.3-0.1,0.5c-0.1,0.2-0.2,0.4-0.3,0.5
		c-0.1,0.2-0.3,0.3-0.5,0.4c-0.2,0.1-0.4,0.2-0.6,0.2h-34c-1,0-1.4-0.5-1.4-1.4V2.2c0-0.4,0.1-0.7,0.4-1c0.2-0.3,0.6-0.4,1.1-0.4h12
		c0.2,0,0.3,0,0.5,0.1c0.2,0.1,0.4,0.2,0.5,0.3c0.2,0.1,0.3,0.3,0.4,0.5c0.1,0.2,0.2,0.4,0.2,0.6v33.2H234.8z"/>
	<path class="st0" d="M244.1,2.2c0-0.4,0.1-0.7,0.4-1c0.2-0.3,0.6-0.4,1.1-0.4h12.8c0.3,0,0.7,0.1,1,0.4c0.4,0.3,0.6,0.6,0.6,1v45.7
		c0,1-0.5,1.4-1.6,1.4h-12.8c-1,0-1.4-0.5-1.4-1.4V2.2z"/>
	<path class="st0" d="M301.3,2.2c0-0.4,0.1-0.7,0.4-1c0.2-0.3,0.6-0.4,1.1-0.4h12c0.6,0,1,0.1,1.2,0.3c0.2,0.2,0.4,0.6,0.4,1.1v46
		c0,0.4-0.1,0.7-0.4,0.9c-0.3,0.2-0.6,0.2-0.9,0.2h-12.6c-0.7,0-1.2-0.4-1.5-1.1L285.6,26v21.9c0,1-0.5,1.4-1.6,1.4h-12
		c-0.5,0-0.9-0.2-1.1-0.5c-0.2-0.3-0.3-0.6-0.3-0.9V2.2c0-0.4,0.1-0.7,0.4-1c0.2-0.3,0.6-0.4,1.1-0.4H286c0.2,0,0.5,0.1,0.8,0.2
		c0.3,0.1,0.6,0.4,0.8,0.8l13.7,20.9V2.2z"/>
	<path class="st0" d="M352.3,2.1c0.3-0.4,0.7-0.7,1.2-1c0.5-0.3,1-0.4,1.5-0.4h15.5c0.2,0,0.4,0,0.5,0.1c0.1,0.1,0.2,0.2,0.2,0.4
		c0,0.2-0.1,0.5-0.3,0.8l-13.4,21.6l13.8,24.1c0.2,0.3,0.3,0.6,0.3,0.8c0,0.2-0.1,0.4-0.2,0.5c-0.1,0.1-0.3,0.2-0.5,0.2h-14.8
		c-0.5,0-1-0.1-1.4-0.4c-0.5-0.3-0.8-0.6-1.1-1L342.8,29v18.8c0,1-0.5,1.4-1.6,1.4h-12.7c-1,0-1.5-0.5-1.5-1.4V2.2
		c0-0.4,0.1-0.7,0.4-1c0.2-0.3,0.6-0.4,1.1-0.4h12.8c0.3,0,0.7,0.1,1,0.4c0.4,0.3,0.5,0.6,0.5,1v16.2L352.3,2.1z"/>
	<path class="st0" d="M376.6,42.3c0-1,0.2-2,0.6-3c0.4-0.9,0.9-1.7,1.6-2.4c0.7-0.7,1.5-1.2,2.4-1.6c0.9-0.4,1.9-0.6,2.9-0.6
		c1.1,0,2.1,0.2,3,0.6c0.9,0.4,1.7,0.9,2.4,1.6c0.7,0.7,1.2,1.5,1.6,2.4c0.4,0.9,0.6,1.9,0.6,3c0,1-0.2,2-0.6,2.9
		c-0.4,0.9-0.9,1.7-1.6,2.4c-0.7,0.7-1.5,1.2-2.4,1.6s-2,0.6-3,0.6c-1,0-2-0.2-2.9-0.6c-0.9-0.4-1.7-0.9-2.4-1.6
		c-0.7-0.7-1.2-1.5-1.6-2.4C376.8,44.3,376.6,43.4,376.6,42.3z"/>
</g>
</svg>
