<?xml version="1.0" encoding="utf-8"?>
<!-- Generator: Adobe Illustrator 22.0.0, SVG Export Plug-In . SVG Version: 6.00 Build 0)  -->
<svg version="1.1" id="codelink-logo-icon" xmlns="http://www.w3.org/2000/svg" xmlns:xlink="http://www.w3.org/1999/xlink" x="0px"
	 y="0px" viewBox="0 0 19 20" style="enable-background:new 0 0 19 20;" xml:space="preserve">
<style type="text/css">
	.st0{fill:#FFFFFF;}
</style>
<g id="codelink-logo">
	<path id="mark" class="st0" d="M13.6,13.3h2.7c0.2,0,0.3,0.1,0.3,0.3v6.1c0,0.2-0.1,0.3-0.3,0.3H10C4.5,20,0,15.5,0,10v0
		C0,4.5,4.5,0,10,0l3,0c0.2,0,0.3,0.1,0.3,0.3V13C13.3,13.2,13.5,13.3,13.6,13.3z"/>
	<g id="trademark">
		<path id="t_1_" class="st0" d="M15.7,0.1C15.7,0,15.7,0,15.7,0.1C15.7,0,15.7,0,15.7,0.1l1.2,0c0,0,0,0,0,0c0,0,0,0,0,0v0.2
			c0,0,0,0,0,0c0,0,0,0,0,0h-0.4v1.3c0,0,0,0,0,0c0,0,0,0,0,0c0,0,0,0,0,0s0,0,0,0h-0.2c0,0,0,0,0,0c0,0,0,0,0,0c0,0,0,0,0,0
			c0,0,0,0,0,0V0.3h-0.4c0,0,0,0,0,0c0,0,0,0,0,0V0.1z"/>
		<path id="m" class="st0" d="M18,1.6C18,1.6,17.9,1.6,18,1.6C17.9,1.6,17.9,1.6,18,1.6c-0.1-0.2-0.2-0.4-0.2-0.5s-0.1-0.3-0.2-0.5
			l-0.1,1c0,0,0,0,0,0c0,0,0,0,0,0h-0.2c0,0-0.1,0-0.1-0.1l0.2-1.5c0,0,0,0,0,0c0,0,0,0,0,0h0.3c0,0,0,0,0,0c0,0,0,0,0,0
			c0,0.1,0.1,0.2,0.1,0.3c0,0.1,0.1,0.2,0.1,0.3l0.2,0.6l0.4-1.1v0c0,0,0,0,0,0c0,0,0,0,0,0h0.3c0,0,0,0,0,0c0,0,0,0,0,0L19,1.6
			c0,0,0,0,0,0s0,0,0,0h-0.2c0,0,0,0,0,0c0,0,0,0,0,0l-0.1-1l-0.4,1c0,0,0,0,0,0c0,0,0,0,0,0H18z"/>
	</g>
</g>
</svg>
